<mxfile host="Electron" agent="Mozilla/5.0 (Windows NT 10.0; Win64; x64) AppleWebKit/537.36 (KHTML, like Gecko) draw.io/26.1.1 Chrome/132.0.6834.210 Electron/34.3.3 Safari/537.36" version="26.1.1">
  <diagram id="C5RBs43oDa-KdzZeNtuy" name="Items/Blocks Use">
    <mxGraphModel dx="1727" dy="1031" grid="1" gridSize="10" guides="1" tooltips="1" connect="1" arrows="1" fold="1" page="1" pageScale="1" pageWidth="40000" pageHeight="40000" math="0" shadow="0">
      <root>
        <mxCell id="WIyWlLk6GJQsqaUBKTNV-0" />
        <mxCell id="WIyWlLk6GJQsqaUBKTNV-1" parent="WIyWlLk6GJQsqaUBKTNV-0" />
        <mxCell id="4DqQwGkzJeAgSaI9an-8-4" value="Nuclear fission&lt;span style=&quot;background-color: transparent; color: light-dark(rgb(0, 0, 0), rgb(255, 255, 255));&quot;&gt;&amp;nbsp;reactor&lt;/span&gt;" style="rounded=1;whiteSpace=wrap;html=1;absoluteArcSize=1;arcSize=14;strokeWidth=2;" parent="WIyWlLk6GJQsqaUBKTNV-1" vertex="1">
          <mxGeometry x="4840" y="2490" width="180" height="60" as="geometry" />
        </mxCell>
        <mxCell id="4DqQwGkzJeAgSaI9an-8-11" style="edgeStyle=none;curved=1;rounded=0;orthogonalLoop=1;jettySize=auto;html=1;fontSize=12;startSize=8;endSize=8;" parent="WIyWlLk6GJQsqaUBKTNV-1" source="4DqQwGkzJeAgSaI9an-8-5" target="4DqQwGkzJeAgSaI9an-8-4" edge="1">
          <mxGeometry relative="1" as="geometry" />
        </mxCell>
        <mxCell id="4DqQwGkzJeAgSaI9an-8-5" value="Reactor fluel" style="rounded=1;whiteSpace=wrap;html=1;absoluteArcSize=1;arcSize=14;strokeWidth=2;" parent="WIyWlLk6GJQsqaUBKTNV-1" vertex="1">
          <mxGeometry x="5080" y="2490" width="180" height="60" as="geometry" />
        </mxCell>
        <mxCell id="4DqQwGkzJeAgSaI9an-8-10" style="edgeStyle=none;curved=1;rounded=0;orthogonalLoop=1;jettySize=auto;html=1;fontSize=12;startSize=8;endSize=8;" parent="WIyWlLk6GJQsqaUBKTNV-1" source="4DqQwGkzJeAgSaI9an-8-6" target="4DqQwGkzJeAgSaI9an-8-5" edge="1">
          <mxGeometry relative="1" as="geometry" />
        </mxCell>
        <mxCell id="4DqQwGkzJeAgSaI9an-8-6" value="" style="strokeWidth=2;html=1;shape=mxgraph.flowchart.annotation_2;align=left;labelPosition=right;pointerEvents=1;" parent="WIyWlLk6GJQsqaUBKTNV-1" vertex="1">
          <mxGeometry x="5310" y="2347.5" width="50" height="345" as="geometry" />
        </mxCell>
        <mxCell id="4DqQwGkzJeAgSaI9an-8-12" value="Uranium Pellets" style="rounded=1;whiteSpace=wrap;html=1;absoluteArcSize=1;arcSize=14;strokeWidth=2;" parent="WIyWlLk6GJQsqaUBKTNV-1" vertex="1">
          <mxGeometry x="5400" y="2330" width="110" height="40" as="geometry" />
        </mxCell>
        <mxCell id="4DqQwGkzJeAgSaI9an-8-53" style="edgeStyle=none;curved=1;rounded=0;orthogonalLoop=1;jettySize=auto;html=1;entryX=1;entryY=0.5;entryDx=0;entryDy=0;fontSize=12;startSize=8;endSize=8;" parent="WIyWlLk6GJQsqaUBKTNV-1" source="4DqQwGkzJeAgSaI9an-8-13" target="4DqQwGkzJeAgSaI9an-8-52" edge="1">
          <mxGeometry relative="1" as="geometry" />
        </mxCell>
        <mxCell id="4DqQwGkzJeAgSaI9an-8-13" value="UO2" style="rounded=1;whiteSpace=wrap;html=1;absoluteArcSize=1;arcSize=14;strokeWidth=2;" parent="WIyWlLk6GJQsqaUBKTNV-1" vertex="1">
          <mxGeometry x="5755" y="2330" width="50" height="40" as="geometry" />
        </mxCell>
        <mxCell id="4DqQwGkzJeAgSaI9an-8-15" style="edgeStyle=none;curved=1;rounded=0;orthogonalLoop=1;jettySize=auto;html=1;fontSize=12;startSize=8;endSize=8;" parent="WIyWlLk6GJQsqaUBKTNV-1" source="4DqQwGkzJeAgSaI9an-8-14" target="4DqQwGkzJeAgSaI9an-8-13" edge="1">
          <mxGeometry relative="1" as="geometry" />
        </mxCell>
        <mxCell id="4DqQwGkzJeAgSaI9an-8-18" style="edgeStyle=none;curved=1;rounded=0;orthogonalLoop=1;jettySize=auto;html=1;entryX=1;entryY=0.5;entryDx=0;entryDy=0;fontSize=12;startSize=8;endSize=8;" parent="WIyWlLk6GJQsqaUBKTNV-1" source="4DqQwGkzJeAgSaI9an-8-14" target="4DqQwGkzJeAgSaI9an-8-17" edge="1">
          <mxGeometry relative="1" as="geometry">
            <Array as="points">
              <mxPoint x="5935" y="2400" />
            </Array>
          </mxGeometry>
        </mxCell>
        <mxCell id="4DqQwGkzJeAgSaI9an-8-14" value="Stainess Steel Tank" style="rounded=1;whiteSpace=wrap;html=1;absoluteArcSize=1;arcSize=14;strokeWidth=2;" parent="WIyWlLk6GJQsqaUBKTNV-1" vertex="1">
          <mxGeometry x="5835" y="2330" width="150" height="40" as="geometry" />
        </mxCell>
        <mxCell id="4DqQwGkzJeAgSaI9an-8-17" value="2HF" style="rounded=1;whiteSpace=wrap;html=1;absoluteArcSize=1;arcSize=14;strokeWidth=2;fillColor=#e3c800;fontColor=#000000;strokeColor=#B09500;" parent="WIyWlLk6GJQsqaUBKTNV-1" vertex="1">
          <mxGeometry x="5835" y="2400" width="40" height="30" as="geometry" />
        </mxCell>
        <mxCell id="4DqQwGkzJeAgSaI9an-8-19" style="edgeStyle=none;curved=1;rounded=0;orthogonalLoop=1;jettySize=auto;html=1;entryX=1;entryY=0;entryDx=0;entryDy=0;entryPerimeter=0;fontSize=12;startSize=8;endSize=8;" parent="WIyWlLk6GJQsqaUBKTNV-1" source="4DqQwGkzJeAgSaI9an-8-12" target="4DqQwGkzJeAgSaI9an-8-6" edge="1">
          <mxGeometry relative="1" as="geometry" />
        </mxCell>
        <mxCell id="4DqQwGkzJeAgSaI9an-8-20" value="H2" style="rounded=1;whiteSpace=wrap;html=1;absoluteArcSize=1;arcSize=14;strokeWidth=2;" parent="WIyWlLk6GJQsqaUBKTNV-1" vertex="1">
          <mxGeometry x="6035" y="2380" width="40" height="30" as="geometry" />
        </mxCell>
        <mxCell id="4DqQwGkzJeAgSaI9an-8-21" value="" style="strokeWidth=2;html=1;shape=mxgraph.flowchart.annotation_2;align=left;labelPosition=right;pointerEvents=1;" parent="WIyWlLk6GJQsqaUBKTNV-1" vertex="1">
          <mxGeometry x="5985" y="2305" width="50" height="90" as="geometry" />
        </mxCell>
        <mxCell id="4DqQwGkzJeAgSaI9an-8-23" value="UO2F2" style="rounded=1;whiteSpace=wrap;html=1;absoluteArcSize=1;arcSize=14;strokeWidth=2;" parent="WIyWlLk6GJQsqaUBKTNV-1" vertex="1">
          <mxGeometry x="6035" y="2290" width="70" height="30" as="geometry" />
        </mxCell>
        <mxCell id="4DqQwGkzJeAgSaI9an-8-25" style="edgeStyle=none;curved=1;rounded=0;orthogonalLoop=1;jettySize=auto;html=1;fontSize=12;startSize=8;endSize=8;" parent="WIyWlLk6GJQsqaUBKTNV-1" source="4DqQwGkzJeAgSaI9an-8-24" target="4DqQwGkzJeAgSaI9an-8-23" edge="1">
          <mxGeometry relative="1" as="geometry" />
        </mxCell>
        <mxCell id="4DqQwGkzJeAgSaI9an-8-24" value="Super Heated Water Hydrolysis" style="rounded=1;whiteSpace=wrap;html=1;absoluteArcSize=1;arcSize=14;strokeWidth=2;" parent="WIyWlLk6GJQsqaUBKTNV-1" vertex="1">
          <mxGeometry x="6155" y="2285" width="200" height="40" as="geometry" />
        </mxCell>
        <mxCell id="4DqQwGkzJeAgSaI9an-8-26" value="" style="strokeWidth=2;html=1;shape=mxgraph.flowchart.annotation_2;align=left;labelPosition=right;pointerEvents=1;" parent="WIyWlLk6GJQsqaUBKTNV-1" vertex="1">
          <mxGeometry x="6355" y="2273.75" width="50" height="62.5" as="geometry" />
        </mxCell>
        <mxCell id="4DqQwGkzJeAgSaI9an-8-29" value="2H2O" style="rounded=1;whiteSpace=wrap;html=1;absoluteArcSize=1;arcSize=14;strokeWidth=2;fillColor=#60a917;fontColor=#ffffff;strokeColor=#2D7600;" parent="WIyWlLk6GJQsqaUBKTNV-1" vertex="1">
          <mxGeometry x="6405" y="2259" width="60" height="30" as="geometry" />
        </mxCell>
        <mxCell id="4DqQwGkzJeAgSaI9an-8-30" value="4HF" style="rounded=1;whiteSpace=wrap;html=1;absoluteArcSize=1;arcSize=14;strokeWidth=2;fillColor=#e3c800;fontColor=#000000;strokeColor=#B09500;" parent="WIyWlLk6GJQsqaUBKTNV-1" vertex="1">
          <mxGeometry x="6185" y="2347.5" width="40" height="30" as="geometry" />
        </mxCell>
        <mxCell id="4DqQwGkzJeAgSaI9an-8-31" style="edgeStyle=none;curved=1;rounded=0;orthogonalLoop=1;jettySize=auto;html=1;entryX=1;entryY=0.5;entryDx=0;entryDy=0;fontSize=12;startSize=8;endSize=8;" parent="WIyWlLk6GJQsqaUBKTNV-1" source="4DqQwGkzJeAgSaI9an-8-24" target="4DqQwGkzJeAgSaI9an-8-30" edge="1">
          <mxGeometry relative="1" as="geometry">
            <Array as="points">
              <mxPoint x="6265" y="2360" />
            </Array>
          </mxGeometry>
        </mxCell>
        <mxCell id="4DqQwGkzJeAgSaI9an-8-32" value="UF6 3% 235" style="rounded=1;whiteSpace=wrap;html=1;absoluteArcSize=1;arcSize=14;strokeWidth=2;" parent="WIyWlLk6GJQsqaUBKTNV-1" vertex="1">
          <mxGeometry x="6405" y="2320" width="90" height="30" as="geometry" />
        </mxCell>
        <mxCell id="4DqQwGkzJeAgSaI9an-8-67" style="edgeStyle=none;curved=1;rounded=0;orthogonalLoop=1;jettySize=auto;html=1;entryX=0.5;entryY=1;entryDx=0;entryDy=0;fontSize=12;startSize=8;endSize=8;exitX=0.001;exitY=0.43;exitDx=0;exitDy=0;exitPerimeter=0;" parent="WIyWlLk6GJQsqaUBKTNV-1" source="4DqQwGkzJeAgSaI9an-8-34" target="4DqQwGkzJeAgSaI9an-8-65" edge="1">
          <mxGeometry relative="1" as="geometry">
            <Array as="points">
              <mxPoint x="6615" y="2310" />
            </Array>
          </mxGeometry>
        </mxCell>
        <mxCell id="4DqQwGkzJeAgSaI9an-8-34" value="UF6 High Speed centrifugation" style="rounded=1;whiteSpace=wrap;html=1;absoluteArcSize=1;arcSize=14;strokeWidth=2;" parent="WIyWlLk6GJQsqaUBKTNV-1" vertex="1">
          <mxGeometry x="6645" y="2315" width="200" height="40" as="geometry" />
        </mxCell>
        <mxCell id="4DqQwGkzJeAgSaI9an-8-44" style="edgeStyle=none;curved=1;rounded=0;orthogonalLoop=1;jettySize=auto;html=1;entryX=1;entryY=0.5;entryDx=0;entryDy=0;fontSize=12;startSize=8;endSize=8;" parent="WIyWlLk6GJQsqaUBKTNV-1" source="4DqQwGkzJeAgSaI9an-8-36" target="4DqQwGkzJeAgSaI9an-8-34" edge="1">
          <mxGeometry relative="1" as="geometry" />
        </mxCell>
        <mxCell id="4DqQwGkzJeAgSaI9an-8-36" value="UF6" style="rounded=1;whiteSpace=wrap;html=1;absoluteArcSize=1;arcSize=14;strokeWidth=2;" parent="WIyWlLk6GJQsqaUBKTNV-1" vertex="1">
          <mxGeometry x="6875" y="2320" width="60" height="30" as="geometry" />
        </mxCell>
        <mxCell id="4DqQwGkzJeAgSaI9an-8-42" style="edgeStyle=none;curved=1;rounded=0;orthogonalLoop=1;jettySize=auto;html=1;entryX=1;entryY=0.5;entryDx=0;entryDy=0;fontSize=12;startSize=8;endSize=8;" parent="WIyWlLk6GJQsqaUBKTNV-1" source="4DqQwGkzJeAgSaI9an-8-40" target="4DqQwGkzJeAgSaI9an-8-32" edge="1">
          <mxGeometry relative="1" as="geometry" />
        </mxCell>
        <mxCell id="4DqQwGkzJeAgSaI9an-8-43" style="edgeStyle=none;curved=1;rounded=0;orthogonalLoop=1;jettySize=auto;html=1;entryX=0.5;entryY=1;entryDx=0;entryDy=0;fontSize=12;startSize=8;endSize=8;exitX=0.5;exitY=1;exitDx=0;exitDy=0;exitPerimeter=0;" parent="WIyWlLk6GJQsqaUBKTNV-1" source="4DqQwGkzJeAgSaI9an-8-40" target="4DqQwGkzJeAgSaI9an-8-36" edge="1">
          <mxGeometry relative="1" as="geometry">
            <Array as="points">
              <mxPoint x="6575" y="2430" />
              <mxPoint x="6905" y="2420" />
            </Array>
          </mxGeometry>
        </mxCell>
        <mxCell id="4DqQwGkzJeAgSaI9an-8-40" value="3% 235 ?" style="strokeWidth=2;html=1;shape=mxgraph.flowchart.decision;whiteSpace=wrap;" parent="WIyWlLk6GJQsqaUBKTNV-1" vertex="1">
          <mxGeometry x="6535" y="2295" width="80" height="80" as="geometry" />
        </mxCell>
        <mxCell id="4DqQwGkzJeAgSaI9an-8-41" style="edgeStyle=none;curved=1;rounded=0;orthogonalLoop=1;jettySize=auto;html=1;entryX=1;entryY=0.5;entryDx=0;entryDy=0;entryPerimeter=0;fontSize=12;startSize=8;endSize=8;" parent="WIyWlLk6GJQsqaUBKTNV-1" source="4DqQwGkzJeAgSaI9an-8-34" target="4DqQwGkzJeAgSaI9an-8-40" edge="1">
          <mxGeometry relative="1" as="geometry" />
        </mxCell>
        <mxCell id="4DqQwGkzJeAgSaI9an-8-45" value="UF4" style="rounded=1;whiteSpace=wrap;html=1;absoluteArcSize=1;arcSize=14;strokeWidth=2;" parent="WIyWlLk6GJQsqaUBKTNV-1" vertex="1">
          <mxGeometry x="7110" y="2372" width="50" height="30" as="geometry" />
        </mxCell>
        <mxCell id="4DqQwGkzJeAgSaI9an-8-47" value="F2" style="rounded=1;whiteSpace=wrap;html=1;absoluteArcSize=1;arcSize=14;strokeWidth=2;" parent="WIyWlLk6GJQsqaUBKTNV-1" vertex="1">
          <mxGeometry x="7110" y="2269" width="40" height="30" as="geometry" />
        </mxCell>
        <mxCell id="4DqQwGkzJeAgSaI9an-8-49" style="edgeStyle=none;curved=1;rounded=0;orthogonalLoop=1;jettySize=auto;html=1;entryX=1;entryY=0.5;entryDx=0;entryDy=0;fontSize=12;startSize=8;endSize=8;" parent="WIyWlLk6GJQsqaUBKTNV-1" source="4DqQwGkzJeAgSaI9an-8-48" target="4DqQwGkzJeAgSaI9an-8-36" edge="1">
          <mxGeometry relative="1" as="geometry" />
        </mxCell>
        <mxCell id="4DqQwGkzJeAgSaI9an-8-48" value="Nickel Tank" style="rounded=1;whiteSpace=wrap;html=1;absoluteArcSize=1;arcSize=14;strokeWidth=2;" parent="WIyWlLk6GJQsqaUBKTNV-1" vertex="1">
          <mxGeometry x="6955" y="2315" width="105" height="40" as="geometry" />
        </mxCell>
        <mxCell id="4DqQwGkzJeAgSaI9an-8-50" value="" style="strokeWidth=2;html=1;shape=mxgraph.flowchart.annotation_2;align=left;labelPosition=right;pointerEvents=1;" parent="WIyWlLk6GJQsqaUBKTNV-1" vertex="1">
          <mxGeometry x="7060" y="2283.75" width="50" height="102.5" as="geometry" />
        </mxCell>
        <mxCell id="4DqQwGkzJeAgSaI9an-8-54" style="edgeStyle=none;curved=1;rounded=0;orthogonalLoop=1;jettySize=auto;html=1;entryX=1;entryY=0.5;entryDx=0;entryDy=0;fontSize=12;startSize=8;endSize=8;" parent="WIyWlLk6GJQsqaUBKTNV-1" source="4DqQwGkzJeAgSaI9an-8-52" target="4DqQwGkzJeAgSaI9an-8-12" edge="1">
          <mxGeometry relative="1" as="geometry" />
        </mxCell>
        <mxCell id="4DqQwGkzJeAgSaI9an-8-52" value="Hydraulic press" style="rounded=1;whiteSpace=wrap;html=1;absoluteArcSize=1;arcSize=14;strokeWidth=2;" parent="WIyWlLk6GJQsqaUBKTNV-1" vertex="1">
          <mxGeometry x="5570" y="2330" width="130" height="40" as="geometry" />
        </mxCell>
        <mxCell id="4DqQwGkzJeAgSaI9an-8-56" style="edgeStyle=none;curved=1;rounded=0;orthogonalLoop=1;jettySize=auto;html=1;entryX=0.5;entryY=1;entryDx=0;entryDy=0;fontSize=12;startSize=8;endSize=8;" parent="WIyWlLk6GJQsqaUBKTNV-1" source="4DqQwGkzJeAgSaI9an-8-55" target="4DqQwGkzJeAgSaI9an-8-52" edge="1">
          <mxGeometry relative="1" as="geometry" />
        </mxCell>
        <mxCell id="4DqQwGkzJeAgSaI9an-8-91" style="edgeStyle=none;curved=1;rounded=0;orthogonalLoop=1;jettySize=auto;html=1;entryX=0.5;entryY=0;entryDx=0;entryDy=0;fontSize=12;startSize=8;endSize=8;" parent="WIyWlLk6GJQsqaUBKTNV-1" source="4DqQwGkzJeAgSaI9an-8-55" target="4DqQwGkzJeAgSaI9an-8-84" edge="1">
          <mxGeometry relative="1" as="geometry" />
        </mxCell>
        <mxCell id="4DqQwGkzJeAgSaI9an-8-55" value="Hydraulic pump" style="rounded=1;whiteSpace=wrap;html=1;absoluteArcSize=1;arcSize=14;strokeWidth=2;" parent="WIyWlLk6GJQsqaUBKTNV-1" vertex="1">
          <mxGeometry x="5560" y="2480" width="130" height="40" as="geometry" />
        </mxCell>
        <mxCell id="4DqQwGkzJeAgSaI9an-8-58" style="edgeStyle=none;curved=1;rounded=0;orthogonalLoop=1;jettySize=auto;html=1;entryX=1;entryY=0.5;entryDx=0;entryDy=0;fontSize=12;startSize=8;endSize=8;" parent="WIyWlLk6GJQsqaUBKTNV-1" source="4DqQwGkzJeAgSaI9an-8-57" target="4DqQwGkzJeAgSaI9an-8-47" edge="1">
          <mxGeometry relative="1" as="geometry" />
        </mxCell>
        <mxCell id="4DqQwGkzJeAgSaI9an-8-60" style="edgeStyle=none;curved=1;rounded=0;orthogonalLoop=1;jettySize=auto;html=1;entryX=1;entryY=0.5;entryDx=0;entryDy=0;fontSize=12;startSize=8;endSize=8;exitX=0;exitY=0.5;exitDx=0;exitDy=0;" parent="WIyWlLk6GJQsqaUBKTNV-1" source="4DqQwGkzJeAgSaI9an-8-57" target="4DqQwGkzJeAgSaI9an-8-59" edge="1">
          <mxGeometry relative="1" as="geometry">
            <Array as="points">
              <mxPoint x="7185" y="2284" />
              <mxPoint x="7175" y="2266" />
              <mxPoint x="7155" y="2236" />
            </Array>
          </mxGeometry>
        </mxCell>
        <mxCell id="4DqQwGkzJeAgSaI9an-8-57" value="Electrolysis in nickel tank" style="rounded=1;whiteSpace=wrap;html=1;absoluteArcSize=1;arcSize=14;strokeWidth=2;" parent="WIyWlLk6GJQsqaUBKTNV-1" vertex="1">
          <mxGeometry x="7195" y="2264" width="170" height="40" as="geometry" />
        </mxCell>
        <mxCell id="4DqQwGkzJeAgSaI9an-8-59" value="H2" style="rounded=1;whiteSpace=wrap;html=1;absoluteArcSize=1;arcSize=14;strokeWidth=2;" parent="WIyWlLk6GJQsqaUBKTNV-1" vertex="1">
          <mxGeometry x="7085" y="2219.75" width="40" height="30" as="geometry" />
        </mxCell>
        <mxCell id="4DqQwGkzJeAgSaI9an-8-61" value="Nickel Reaction Tank" style="rounded=1;whiteSpace=wrap;html=1;absoluteArcSize=1;arcSize=14;strokeWidth=2;" parent="WIyWlLk6GJQsqaUBKTNV-1" vertex="1">
          <mxGeometry x="7125" y="2114" width="140" height="40" as="geometry" />
        </mxCell>
        <mxCell id="4DqQwGkzJeAgSaI9an-8-62" value="" style="strokeWidth=2;html=1;shape=mxgraph.flowchart.annotation_2;align=left;labelPosition=right;pointerEvents=1;direction=north;" parent="WIyWlLk6GJQsqaUBKTNV-1" vertex="1">
          <mxGeometry x="7200" y="2154" width="160" height="110" as="geometry" />
        </mxCell>
        <mxCell id="4DqQwGkzJeAgSaI9an-8-63" value="Carbon electrodes" style="rounded=1;whiteSpace=wrap;html=1;absoluteArcSize=1;arcSize=14;strokeWidth=2;" parent="WIyWlLk6GJQsqaUBKTNV-1" vertex="1">
          <mxGeometry x="7295" y="2114" width="140" height="40" as="geometry" />
        </mxCell>
        <mxCell id="4DqQwGkzJeAgSaI9an-8-65" value="UF6 high 238" style="rounded=1;whiteSpace=wrap;html=1;absoluteArcSize=1;arcSize=14;strokeWidth=2;" parent="WIyWlLk6GJQsqaUBKTNV-1" vertex="1">
          <mxGeometry x="6570" y="2229" width="90" height="30" as="geometry" />
        </mxCell>
        <mxCell id="4DqQwGkzJeAgSaI9an-8-68" value="" style="strokeWidth=2;html=1;shape=mxgraph.flowchart.annotation_2;align=left;labelPosition=right;pointerEvents=1;" parent="WIyWlLk6GJQsqaUBKTNV-1" vertex="1">
          <mxGeometry x="7545" y="2257.63" width="50" height="54" as="geometry" />
        </mxCell>
        <mxCell id="4DqQwGkzJeAgSaI9an-8-70" value="K2CO3" style="rounded=1;whiteSpace=wrap;html=1;absoluteArcSize=1;arcSize=14;strokeWidth=2;fillColor=#1ba1e2;fontColor=#ffffff;strokeColor=#006EAF;" parent="WIyWlLk6GJQsqaUBKTNV-1" vertex="1">
          <mxGeometry x="7595" y="2243.38" width="60" height="30" as="geometry" />
        </mxCell>
        <mxCell id="4DqQwGkzJeAgSaI9an-8-71" value="4HF" style="rounded=1;whiteSpace=wrap;html=1;absoluteArcSize=1;arcSize=14;strokeWidth=2;fillColor=#e3c800;fontColor=#000000;strokeColor=#B09500;" parent="WIyWlLk6GJQsqaUBKTNV-1" vertex="1">
          <mxGeometry x="7595" y="2296.63" width="50" height="30" as="geometry" />
        </mxCell>
        <mxCell id="4DqQwGkzJeAgSaI9an-8-72" value="" style="strokeWidth=2;html=1;shape=mxgraph.flowchart.annotation_2;align=left;labelPosition=right;pointerEvents=1;" parent="WIyWlLk6GJQsqaUBKTNV-1" vertex="1">
          <mxGeometry x="7160" y="2347" width="50" height="80" as="geometry" />
        </mxCell>
        <mxCell id="4DqQwGkzJeAgSaI9an-8-73" value="4HF" style="rounded=1;whiteSpace=wrap;html=1;absoluteArcSize=1;arcSize=14;strokeWidth=2;fillColor=#e3c800;fontColor=#000000;strokeColor=#B09500;" parent="WIyWlLk6GJQsqaUBKTNV-1" vertex="1">
          <mxGeometry x="7210" y="2333" width="50" height="30" as="geometry" />
        </mxCell>
        <mxCell id="4DqQwGkzJeAgSaI9an-8-74" value="UO2" style="rounded=1;whiteSpace=wrap;html=1;absoluteArcSize=1;arcSize=14;strokeWidth=2;" parent="WIyWlLk6GJQsqaUBKTNV-1" vertex="1">
          <mxGeometry x="7210" y="2413" width="50" height="30" as="geometry" />
        </mxCell>
        <mxCell id="4DqQwGkzJeAgSaI9an-8-75" value="" style="strokeWidth=2;html=1;shape=mxgraph.flowchart.annotation_2;align=left;labelPosition=right;pointerEvents=1;" parent="WIyWlLk6GJQsqaUBKTNV-1" vertex="1">
          <mxGeometry x="7463" y="2401" width="50" height="54" as="geometry" />
        </mxCell>
        <mxCell id="4DqQwGkzJeAgSaI9an-8-79" style="edgeStyle=none;curved=1;rounded=0;orthogonalLoop=1;jettySize=auto;html=1;entryX=1;entryY=0.5;entryDx=0;entryDy=0;fontSize=12;startSize=8;endSize=8;" parent="WIyWlLk6GJQsqaUBKTNV-1" source="4DqQwGkzJeAgSaI9an-8-76" target="4DqQwGkzJeAgSaI9an-8-74" edge="1">
          <mxGeometry relative="1" as="geometry" />
        </mxCell>
        <mxCell id="4DqQwGkzJeAgSaI9an-8-76" value="Stainless Steel Tank 450C" style="rounded=1;whiteSpace=wrap;html=1;absoluteArcSize=1;arcSize=14;strokeWidth=2;" parent="WIyWlLk6GJQsqaUBKTNV-1" vertex="1">
          <mxGeometry x="7285" y="2408" width="180" height="40" as="geometry" />
        </mxCell>
        <mxCell id="4DqQwGkzJeAgSaI9an-8-78" style="edgeStyle=none;curved=1;rounded=0;orthogonalLoop=1;jettySize=auto;html=1;entryX=1;entryY=0.5;entryDx=0;entryDy=0;fontSize=12;startSize=8;endSize=8;" parent="WIyWlLk6GJQsqaUBKTNV-1" source="4DqQwGkzJeAgSaI9an-8-77" target="4DqQwGkzJeAgSaI9an-8-57" edge="1">
          <mxGeometry relative="1" as="geometry" />
        </mxCell>
        <mxCell id="4DqQwGkzJeAgSaI9an-8-77" value="Stainless Steel Tank" style="rounded=1;whiteSpace=wrap;html=1;absoluteArcSize=1;arcSize=14;strokeWidth=2;" parent="WIyWlLk6GJQsqaUBKTNV-1" vertex="1">
          <mxGeometry x="7398" y="2265" width="147" height="40" as="geometry" />
        </mxCell>
        <mxCell id="4DqQwGkzJeAgSaI9an-8-80" value="UO3" style="rounded=1;whiteSpace=wrap;html=1;absoluteArcSize=1;arcSize=14;strokeWidth=2;fillColor=#60a917;fontColor=#ffffff;strokeColor=#2D7600;" parent="WIyWlLk6GJQsqaUBKTNV-1" vertex="1">
          <mxGeometry x="7513" y="2440" width="50" height="30" as="geometry" />
        </mxCell>
        <mxCell id="4DqQwGkzJeAgSaI9an-8-81" value="H2" style="rounded=1;whiteSpace=wrap;html=1;absoluteArcSize=1;arcSize=14;strokeWidth=2;" parent="WIyWlLk6GJQsqaUBKTNV-1" vertex="1">
          <mxGeometry x="7513" y="2386.25" width="32" height="30" as="geometry" />
        </mxCell>
        <mxCell id="4DqQwGkzJeAgSaI9an-8-82" value="MOX Pellets" style="rounded=1;whiteSpace=wrap;html=1;absoluteArcSize=1;arcSize=14;strokeWidth=2;" parent="WIyWlLk6GJQsqaUBKTNV-1" vertex="1">
          <mxGeometry x="5397" y="2672" width="110" height="40" as="geometry" />
        </mxCell>
        <mxCell id="4DqQwGkzJeAgSaI9an-8-83" style="edgeStyle=none;curved=1;rounded=0;orthogonalLoop=1;jettySize=auto;html=1;entryX=1;entryY=1;entryDx=0;entryDy=0;entryPerimeter=0;fontSize=12;startSize=8;endSize=8;" parent="WIyWlLk6GJQsqaUBKTNV-1" source="4DqQwGkzJeAgSaI9an-8-82" target="4DqQwGkzJeAgSaI9an-8-6" edge="1">
          <mxGeometry relative="1" as="geometry" />
        </mxCell>
        <mxCell id="4DqQwGkzJeAgSaI9an-8-85" style="edgeStyle=none;curved=1;rounded=0;orthogonalLoop=1;jettySize=auto;html=1;entryX=1;entryY=0.5;entryDx=0;entryDy=0;fontSize=12;startSize=8;endSize=8;" parent="WIyWlLk6GJQsqaUBKTNV-1" source="4DqQwGkzJeAgSaI9an-8-84" target="4DqQwGkzJeAgSaI9an-8-82" edge="1">
          <mxGeometry relative="1" as="geometry" />
        </mxCell>
        <mxCell id="4DqQwGkzJeAgSaI9an-8-84" value="Hydraulic press" style="rounded=1;whiteSpace=wrap;html=1;absoluteArcSize=1;arcSize=14;strokeWidth=2;" parent="WIyWlLk6GJQsqaUBKTNV-1" vertex="1">
          <mxGeometry x="5540" y="2672" width="130" height="40" as="geometry" />
        </mxCell>
        <mxCell id="4DqQwGkzJeAgSaI9an-8-87" value="MOX Powder" style="rounded=1;whiteSpace=wrap;html=1;absoluteArcSize=1;arcSize=14;strokeWidth=2;" parent="WIyWlLk6GJQsqaUBKTNV-1" vertex="1">
          <mxGeometry x="5710" y="2672" width="110" height="40" as="geometry" />
        </mxCell>
        <mxCell id="4DqQwGkzJeAgSaI9an-8-88" style="edgeStyle=none;curved=1;rounded=0;orthogonalLoop=1;jettySize=auto;html=1;entryX=1.027;entryY=0.563;entryDx=0;entryDy=0;entryPerimeter=0;fontSize=12;startSize=8;endSize=8;" parent="WIyWlLk6GJQsqaUBKTNV-1" source="4DqQwGkzJeAgSaI9an-8-87" target="4DqQwGkzJeAgSaI9an-8-84" edge="1">
          <mxGeometry relative="1" as="geometry" />
        </mxCell>
        <mxCell id="4DqQwGkzJeAgSaI9an-8-90" style="edgeStyle=none;curved=1;rounded=0;orthogonalLoop=1;jettySize=auto;html=1;entryX=1;entryY=0.5;entryDx=0;entryDy=0;fontSize=12;startSize=8;endSize=8;" parent="WIyWlLk6GJQsqaUBKTNV-1" source="4DqQwGkzJeAgSaI9an-8-89" target="4DqQwGkzJeAgSaI9an-8-87" edge="1">
          <mxGeometry relative="1" as="geometry" />
        </mxCell>
        <mxCell id="4DqQwGkzJeAgSaI9an-8-89" value="Ball Mixer" style="rounded=1;whiteSpace=wrap;html=1;absoluteArcSize=1;arcSize=14;strokeWidth=2;" parent="WIyWlLk6GJQsqaUBKTNV-1" vertex="1">
          <mxGeometry x="5860" y="2672" width="110" height="40" as="geometry" />
        </mxCell>
        <mxCell id="4DqQwGkzJeAgSaI9an-8-95" style="edgeStyle=none;curved=1;rounded=0;orthogonalLoop=1;jettySize=auto;html=1;entryX=0.5;entryY=1;entryDx=0;entryDy=0;fontSize=12;startSize=8;endSize=8;exitX=0;exitY=0.5;exitDx=0;exitDy=0;" parent="WIyWlLk6GJQsqaUBKTNV-1" source="4DqQwGkzJeAgSaI9an-8-92" target="4DqQwGkzJeAgSaI9an-8-89" edge="1">
          <mxGeometry relative="1" as="geometry">
            <Array as="points">
              <mxPoint x="5915" y="2840" />
            </Array>
          </mxGeometry>
        </mxCell>
        <mxCell id="4DqQwGkzJeAgSaI9an-8-92" value="UO2 238 95%" style="rounded=1;whiteSpace=wrap;html=1;absoluteArcSize=1;arcSize=14;strokeWidth=2;" parent="WIyWlLk6GJQsqaUBKTNV-1" vertex="1">
          <mxGeometry x="6005" y="2822.25" width="100" height="40" as="geometry" />
        </mxCell>
        <mxCell id="4DqQwGkzJeAgSaI9an-8-96" style="edgeStyle=none;curved=1;rounded=0;orthogonalLoop=1;jettySize=auto;html=1;entryX=1;entryY=0.5;entryDx=0;entryDy=0;fontSize=12;startSize=8;endSize=8;" parent="WIyWlLk6GJQsqaUBKTNV-1" source="4DqQwGkzJeAgSaI9an-8-93" target="4DqQwGkzJeAgSaI9an-8-89" edge="1">
          <mxGeometry relative="1" as="geometry" />
        </mxCell>
        <mxCell id="4DqQwGkzJeAgSaI9an-8-93" value="PuO2 239 5%" style="rounded=1;whiteSpace=wrap;html=1;absoluteArcSize=1;arcSize=14;strokeWidth=2;" parent="WIyWlLk6GJQsqaUBKTNV-1" vertex="1">
          <mxGeometry x="6040" y="2672" width="100" height="40" as="geometry" />
        </mxCell>
        <mxCell id="ap272Ouc-3efmhPf3Gaz-82" value="" style="edgeStyle=none;curved=1;rounded=0;orthogonalLoop=1;jettySize=auto;html=1;fontSize=12;startSize=8;endSize=8;" parent="WIyWlLk6GJQsqaUBKTNV-1" source="4DqQwGkzJeAgSaI9an-8-94" target="4DqQwGkzJeAgSaI9an-8-93" edge="1">
          <mxGeometry relative="1" as="geometry" />
        </mxCell>
        <mxCell id="4DqQwGkzJeAgSaI9an-8-94" value="PuO2&amp;nbsp;" style="rounded=1;whiteSpace=wrap;html=1;absoluteArcSize=1;arcSize=14;strokeWidth=2;" parent="WIyWlLk6GJQsqaUBKTNV-1" vertex="1">
          <mxGeometry x="6181" y="2672" width="100" height="40" as="geometry" />
        </mxCell>
        <mxCell id="4DqQwGkzJeAgSaI9an-8-99" style="edgeStyle=none;curved=1;rounded=0;orthogonalLoop=1;jettySize=auto;html=1;entryX=1;entryY=0.5;entryDx=0;entryDy=0;fontSize=12;startSize=8;endSize=8;" parent="WIyWlLk6GJQsqaUBKTNV-1" source="4DqQwGkzJeAgSaI9an-8-98" target="4DqQwGkzJeAgSaI9an-8-94" edge="1">
          <mxGeometry relative="1" as="geometry" />
        </mxCell>
        <mxCell id="4DqQwGkzJeAgSaI9an-8-98" value="Stainless Steel Tank 300C" style="rounded=1;whiteSpace=wrap;html=1;absoluteArcSize=1;arcSize=14;strokeWidth=2;" parent="WIyWlLk6GJQsqaUBKTNV-1" vertex="1">
          <mxGeometry x="6336" y="2672" width="180" height="40" as="geometry" />
        </mxCell>
        <mxCell id="4DqQwGkzJeAgSaI9an-8-101" value="" style="strokeWidth=2;html=1;shape=mxgraph.flowchart.annotation_2;align=left;labelPosition=right;pointerEvents=1;" parent="WIyWlLk6GJQsqaUBKTNV-1" vertex="1">
          <mxGeometry x="6831" y="2636.5" width="50" height="110" as="geometry" />
        </mxCell>
        <mxCell id="4DqQwGkzJeAgSaI9an-8-109" style="edgeStyle=none;curved=1;rounded=0;orthogonalLoop=1;jettySize=auto;html=1;entryX=1;entryY=0.5;entryDx=0;entryDy=0;fontSize=12;startSize=8;endSize=8;" parent="WIyWlLk6GJQsqaUBKTNV-1" source="4DqQwGkzJeAgSaI9an-8-103" target="4DqQwGkzJeAgSaI9an-8-107" edge="1">
          <mxGeometry relative="1" as="geometry" />
        </mxCell>
        <mxCell id="4DqQwGkzJeAgSaI9an-8-103" value="Stainless Steel Tank" style="rounded=1;whiteSpace=wrap;html=1;absoluteArcSize=1;arcSize=14;strokeWidth=2;" parent="WIyWlLk6GJQsqaUBKTNV-1" vertex="1">
          <mxGeometry x="6681" y="2671.5" width="150" height="40" as="geometry" />
        </mxCell>
        <mxCell id="4DqQwGkzJeAgSaI9an-8-105" value="Pu(NO3)4" style="rounded=1;whiteSpace=wrap;html=1;absoluteArcSize=1;arcSize=14;strokeWidth=2;" parent="WIyWlLk6GJQsqaUBKTNV-1" vertex="1">
          <mxGeometry x="6881" y="2727" width="80" height="40" as="geometry" />
        </mxCell>
        <mxCell id="4DqQwGkzJeAgSaI9an-8-106" value="2H2C2O4" style="rounded=1;whiteSpace=wrap;html=1;absoluteArcSize=1;arcSize=14;strokeWidth=2;fillColor=#647687;fontColor=#ffffff;strokeColor=#314354;" parent="WIyWlLk6GJQsqaUBKTNV-1" vertex="1">
          <mxGeometry x="6881" y="2622" width="80" height="40" as="geometry" />
        </mxCell>
        <mxCell id="4DqQwGkzJeAgSaI9an-8-108" style="edgeStyle=none;curved=1;rounded=0;orthogonalLoop=1;jettySize=auto;html=1;entryX=1;entryY=0.5;entryDx=0;entryDy=0;fontSize=12;startSize=8;endSize=8;" parent="WIyWlLk6GJQsqaUBKTNV-1" source="4DqQwGkzJeAgSaI9an-8-107" target="4DqQwGkzJeAgSaI9an-8-98" edge="1">
          <mxGeometry relative="1" as="geometry" />
        </mxCell>
        <mxCell id="4DqQwGkzJeAgSaI9an-8-107" value="Pu(C2O4)2" style="rounded=1;whiteSpace=wrap;html=1;absoluteArcSize=1;arcSize=14;strokeWidth=2;" parent="WIyWlLk6GJQsqaUBKTNV-1" vertex="1">
          <mxGeometry x="6546" y="2671.5" width="100" height="40" as="geometry" />
        </mxCell>
        <mxCell id="4DqQwGkzJeAgSaI9an-8-113" style="edgeStyle=none;curved=1;rounded=0;orthogonalLoop=1;jettySize=auto;html=1;entryX=1;entryY=0.5;entryDx=0;entryDy=0;fontSize=12;startSize=8;endSize=8;" parent="WIyWlLk6GJQsqaUBKTNV-1" source="4DqQwGkzJeAgSaI9an-8-112" target="4DqQwGkzJeAgSaI9an-8-105" edge="1">
          <mxGeometry relative="1" as="geometry" />
        </mxCell>
        <mxCell id="4DqQwGkzJeAgSaI9an-8-112" value="Stainless Steel Tank" style="rounded=1;whiteSpace=wrap;html=1;absoluteArcSize=1;arcSize=14;strokeWidth=2;" parent="WIyWlLk6GJQsqaUBKTNV-1" vertex="1">
          <mxGeometry x="6996" y="2727" width="150" height="40" as="geometry" />
        </mxCell>
        <mxCell id="4DqQwGkzJeAgSaI9an-8-114" value="" style="strokeWidth=2;html=1;shape=mxgraph.flowchart.annotation_2;align=left;labelPosition=right;pointerEvents=1;" parent="WIyWlLk6GJQsqaUBKTNV-1" vertex="1">
          <mxGeometry x="7146" y="2722" width="50" height="50" as="geometry" />
        </mxCell>
        <mxCell id="4DqQwGkzJeAgSaI9an-8-115" value="Pu(NO3)4 (Persipitate)" style="rounded=1;whiteSpace=wrap;html=1;absoluteArcSize=1;arcSize=14;strokeWidth=2;" parent="WIyWlLk6GJQsqaUBKTNV-1" vertex="1">
          <mxGeometry x="7196" y="2751" width="160" height="40" as="geometry" />
        </mxCell>
        <mxCell id="4DqQwGkzJeAgSaI9an-8-116" value="HNO3" style="rounded=1;whiteSpace=wrap;html=1;absoluteArcSize=1;arcSize=14;strokeWidth=2;fillColor=#6a00ff;fontColor=#ffffff;strokeColor=#3700CC;" parent="WIyWlLk6GJQsqaUBKTNV-1" vertex="1">
          <mxGeometry x="7191" y="2706.5" width="50" height="30" as="geometry" />
        </mxCell>
        <mxCell id="4DqQwGkzJeAgSaI9an-8-118" style="edgeStyle=none;curved=1;rounded=0;orthogonalLoop=1;jettySize=auto;html=1;entryX=1;entryY=0.5;entryDx=0;entryDy=0;fontSize=12;startSize=8;endSize=8;" parent="WIyWlLk6GJQsqaUBKTNV-1" source="4DqQwGkzJeAgSaI9an-8-117" target="4DqQwGkzJeAgSaI9an-8-115" edge="1">
          <mxGeometry relative="1" as="geometry" />
        </mxCell>
        <mxCell id="4DqQwGkzJeAgSaI9an-8-122" style="edgeStyle=none;curved=1;rounded=0;orthogonalLoop=1;jettySize=auto;html=1;entryX=1;entryY=0.5;entryDx=0;entryDy=0;fontSize=12;startSize=8;endSize=8;" parent="WIyWlLk6GJQsqaUBKTNV-1" source="4DqQwGkzJeAgSaI9an-8-117" target="4DqQwGkzJeAgSaI9an-8-121" edge="1">
          <mxGeometry relative="1" as="geometry">
            <Array as="points">
              <mxPoint x="7360" y="2780" />
              <mxPoint x="7350" y="2900" />
            </Array>
          </mxGeometry>
        </mxCell>
        <mxCell id="4DqQwGkzJeAgSaI9an-8-117" value="Stainless Steel Precipitation&lt;div&gt;separation Tank&lt;/div&gt;" style="rounded=1;whiteSpace=wrap;html=1;absoluteArcSize=1;arcSize=14;strokeWidth=2;" parent="WIyWlLk6GJQsqaUBKTNV-1" vertex="1">
          <mxGeometry x="7401" y="2751" width="180" height="40" as="geometry" />
        </mxCell>
        <mxCell id="4DqQwGkzJeAgSaI9an-8-119" value="[Pu(NO3)4(TPB)2] + [UO2(NO3)2(TPB)2]" style="rounded=1;whiteSpace=wrap;html=1;absoluteArcSize=1;arcSize=14;strokeWidth=2;" parent="WIyWlLk6GJQsqaUBKTNV-1" vertex="1">
          <mxGeometry x="7471" y="3118" width="277" height="40" as="geometry" />
        </mxCell>
        <mxCell id="4DqQwGkzJeAgSaI9an-8-121" value="[UO2(NO3)2(TPB)2]" style="rounded=1;whiteSpace=wrap;html=1;absoluteArcSize=1;arcSize=14;strokeWidth=2;" parent="WIyWlLk6GJQsqaUBKTNV-1" vertex="1">
          <mxGeometry x="7086.5" y="2879" width="153.5" height="40" as="geometry" />
        </mxCell>
        <mxCell id="4DqQwGkzJeAgSaI9an-8-124" style="edgeStyle=none;curved=1;rounded=0;orthogonalLoop=1;jettySize=auto;html=1;entryX=0.5;entryY=0;entryDx=0;entryDy=0;fontSize=12;startSize=8;endSize=8;exitX=0.024;exitY=0.433;exitDx=0;exitDy=0;exitPerimeter=0;" parent="WIyWlLk6GJQsqaUBKTNV-1" source="4DqQwGkzJeAgSaI9an-8-123" target="4DqQwGkzJeAgSaI9an-8-117" edge="1">
          <mxGeometry relative="1" as="geometry">
            <mxPoint x="7566" y="2609" as="sourcePoint" />
            <Array as="points">
              <mxPoint x="7476" y="2582" />
            </Array>
          </mxGeometry>
        </mxCell>
        <mxCell id="4DqQwGkzJeAgSaI9an-8-123" value="Fe(NH2SO3)2" style="rounded=1;whiteSpace=wrap;html=1;absoluteArcSize=1;arcSize=14;strokeWidth=2;" parent="WIyWlLk6GJQsqaUBKTNV-1" vertex="1">
          <mxGeometry x="7569" y="2565" width="110" height="30" as="geometry" />
        </mxCell>
        <mxCell id="4DqQwGkzJeAgSaI9an-8-129" style="edgeStyle=none;curved=1;rounded=0;orthogonalLoop=1;jettySize=auto;html=1;entryX=1;entryY=0.5;entryDx=0;entryDy=0;fontSize=12;startSize=8;endSize=8;" parent="WIyWlLk6GJQsqaUBKTNV-1" source="4DqQwGkzJeAgSaI9an-8-128" target="4DqQwGkzJeAgSaI9an-8-123" edge="1">
          <mxGeometry relative="1" as="geometry" />
        </mxCell>
        <mxCell id="4DqQwGkzJeAgSaI9an-8-128" value="Stainless Steel Tank" style="rounded=1;whiteSpace=wrap;html=1;absoluteArcSize=1;arcSize=14;strokeWidth=2;" parent="WIyWlLk6GJQsqaUBKTNV-1" vertex="1">
          <mxGeometry x="7716" y="2560" width="150" height="40" as="geometry" />
        </mxCell>
        <mxCell id="4DqQwGkzJeAgSaI9an-8-130" value="" style="strokeWidth=2;html=1;shape=mxgraph.flowchart.annotation_2;align=left;labelPosition=right;pointerEvents=1;" parent="WIyWlLk6GJQsqaUBKTNV-1" vertex="1">
          <mxGeometry x="7866" y="2554.5" width="50" height="55" as="geometry" />
        </mxCell>
        <mxCell id="4DqQwGkzJeAgSaI9an-8-131" value="Iron" style="rounded=1;whiteSpace=wrap;html=1;absoluteArcSize=1;arcSize=14;strokeWidth=2;fillColor=#60a917;fontColor=#ffffff;strokeColor=#2D7600;" parent="WIyWlLk6GJQsqaUBKTNV-1" vertex="1">
          <mxGeometry x="7916" y="2595" width="50" height="30" as="geometry" />
        </mxCell>
        <mxCell id="4DqQwGkzJeAgSaI9an-8-132" value="H3NSO3" style="rounded=1;whiteSpace=wrap;html=1;absoluteArcSize=1;arcSize=14;strokeWidth=2;" parent="WIyWlLk6GJQsqaUBKTNV-1" vertex="1">
          <mxGeometry x="7916" y="2540" width="73" height="30" as="geometry" />
        </mxCell>
        <mxCell id="4DqQwGkzJeAgSaI9an-8-134" style="edgeStyle=none;curved=1;rounded=0;orthogonalLoop=1;jettySize=auto;html=1;entryX=1;entryY=0.5;entryDx=0;entryDy=0;fontSize=12;startSize=8;endSize=8;" parent="WIyWlLk6GJQsqaUBKTNV-1" source="4DqQwGkzJeAgSaI9an-8-133" target="4DqQwGkzJeAgSaI9an-8-132" edge="1">
          <mxGeometry relative="1" as="geometry" />
        </mxCell>
        <mxCell id="ap272Ouc-3efmhPf3Gaz-27" style="edgeStyle=none;curved=1;rounded=0;orthogonalLoop=1;jettySize=auto;html=1;entryX=1;entryY=0.5;entryDx=0;entryDy=0;fontSize=12;startSize=8;endSize=8;exitX=0.75;exitY=1;exitDx=0;exitDy=0;" parent="WIyWlLk6GJQsqaUBKTNV-1" source="4DqQwGkzJeAgSaI9an-8-133" target="ap272Ouc-3efmhPf3Gaz-25" edge="1">
          <mxGeometry relative="1" as="geometry">
            <Array as="points">
              <mxPoint x="8151" y="2615" />
            </Array>
          </mxGeometry>
        </mxCell>
        <mxCell id="4DqQwGkzJeAgSaI9an-8-133" value="Stainless Steel Tank" style="rounded=1;whiteSpace=wrap;html=1;absoluteArcSize=1;arcSize=14;strokeWidth=2;" parent="WIyWlLk6GJQsqaUBKTNV-1" vertex="1">
          <mxGeometry x="8029" y="2535" width="150" height="40" as="geometry" />
        </mxCell>
        <mxCell id="4DqQwGkzJeAgSaI9an-8-135" value="" style="strokeWidth=2;html=1;shape=mxgraph.flowchart.annotation_2;align=left;labelPosition=right;pointerEvents=1;" parent="WIyWlLk6GJQsqaUBKTNV-1" vertex="1">
          <mxGeometry x="8179" y="2520" width="50" height="70" as="geometry" />
        </mxCell>
        <mxCell id="4DqQwGkzJeAgSaI9an-8-136" value="H2SO4" style="rounded=1;whiteSpace=wrap;html=1;absoluteArcSize=1;arcSize=14;strokeWidth=2;fillColor=#e51400;fontColor=#ffffff;strokeColor=#B20000;" parent="WIyWlLk6GJQsqaUBKTNV-1" vertex="1">
          <mxGeometry x="8229" y="2505" width="73" height="30" as="geometry" />
        </mxCell>
        <mxCell id="4DqQwGkzJeAgSaI9an-8-137" value="OC(NH2)(NHSO3H)" style="rounded=1;whiteSpace=wrap;html=1;absoluteArcSize=1;arcSize=14;strokeWidth=2;" parent="WIyWlLk6GJQsqaUBKTNV-1" vertex="1">
          <mxGeometry x="8229" y="2575" width="140" height="30" as="geometry" />
        </mxCell>
        <mxCell id="4DqQwGkzJeAgSaI9an-8-139" value="" style="edgeStyle=none;curved=1;rounded=0;orthogonalLoop=1;jettySize=auto;html=1;fontSize=12;startSize=8;endSize=8;" parent="WIyWlLk6GJQsqaUBKTNV-1" source="4DqQwGkzJeAgSaI9an-8-138" target="4DqQwGkzJeAgSaI9an-8-137" edge="1">
          <mxGeometry relative="1" as="geometry" />
        </mxCell>
        <mxCell id="4DqQwGkzJeAgSaI9an-8-138" value="Stainless Steel Tank" style="rounded=1;whiteSpace=wrap;html=1;absoluteArcSize=1;arcSize=14;strokeWidth=2;" parent="WIyWlLk6GJQsqaUBKTNV-1" vertex="1">
          <mxGeometry x="8399" y="2569.5" width="150" height="40" as="geometry" />
        </mxCell>
        <mxCell id="4DqQwGkzJeAgSaI9an-8-140" value="" style="strokeWidth=2;html=1;shape=mxgraph.flowchart.annotation_2;align=left;labelPosition=right;pointerEvents=1;" parent="WIyWlLk6GJQsqaUBKTNV-1" vertex="1">
          <mxGeometry x="8549" y="2554.25" width="50" height="70.25" as="geometry" />
        </mxCell>
        <mxCell id="4DqQwGkzJeAgSaI9an-8-141" value="OC(NH2)2" style="rounded=1;whiteSpace=wrap;html=1;absoluteArcSize=1;arcSize=14;strokeWidth=2;" parent="WIyWlLk6GJQsqaUBKTNV-1" vertex="1">
          <mxGeometry x="8599" y="2609.5" width="73" height="30" as="geometry" />
        </mxCell>
        <mxCell id="4DqQwGkzJeAgSaI9an-8-142" value="SO3" style="rounded=1;whiteSpace=wrap;html=1;absoluteArcSize=1;arcSize=14;strokeWidth=2;fillColor=#d80073;fontColor=#ffffff;strokeColor=#A50040;" parent="WIyWlLk6GJQsqaUBKTNV-1" vertex="1">
          <mxGeometry x="8599" y="2539" width="50" height="30" as="geometry" />
        </mxCell>
        <mxCell id="4DqQwGkzJeAgSaI9an-8-144" style="edgeStyle=none;curved=1;rounded=0;orthogonalLoop=1;jettySize=auto;html=1;fontSize=12;startSize=8;endSize=8;" parent="WIyWlLk6GJQsqaUBKTNV-1" source="4DqQwGkzJeAgSaI9an-8-143" target="4DqQwGkzJeAgSaI9an-8-141" edge="1">
          <mxGeometry relative="1" as="geometry" />
        </mxCell>
        <mxCell id="4DqQwGkzJeAgSaI9an-8-143" value="Stainless Steel Tank 160C" style="rounded=1;whiteSpace=wrap;html=1;absoluteArcSize=1;arcSize=14;strokeWidth=2;" parent="WIyWlLk6GJQsqaUBKTNV-1" vertex="1">
          <mxGeometry x="8709" y="2604.5" width="160" height="40" as="geometry" />
        </mxCell>
        <mxCell id="4DqQwGkzJeAgSaI9an-8-145" value="" style="strokeWidth=2;html=1;shape=mxgraph.flowchart.annotation_2;align=left;labelPosition=right;pointerEvents=1;" parent="WIyWlLk6GJQsqaUBKTNV-1" vertex="1">
          <mxGeometry x="8869" y="2597" width="50" height="55" as="geometry" />
        </mxCell>
        <mxCell id="4DqQwGkzJeAgSaI9an-8-146" value="2NH3" style="rounded=1;whiteSpace=wrap;html=1;absoluteArcSize=1;arcSize=14;strokeWidth=2;fillColor=#76608a;fontColor=#ffffff;strokeColor=#432D57;" parent="WIyWlLk6GJQsqaUBKTNV-1" vertex="1">
          <mxGeometry x="8919" y="2582.5" width="50" height="30" as="geometry" />
        </mxCell>
        <mxCell id="4DqQwGkzJeAgSaI9an-8-147" value="CO2" style="rounded=1;whiteSpace=wrap;html=1;absoluteArcSize=1;arcSize=14;strokeWidth=2;" parent="WIyWlLk6GJQsqaUBKTNV-1" vertex="1">
          <mxGeometry x="8919" y="2638" width="50" height="30" as="geometry" />
        </mxCell>
        <mxCell id="4DqQwGkzJeAgSaI9an-8-155" style="edgeStyle=none;curved=1;rounded=0;orthogonalLoop=1;jettySize=auto;html=1;fontSize=12;startSize=8;endSize=8;" parent="WIyWlLk6GJQsqaUBKTNV-1" source="4DqQwGkzJeAgSaI9an-8-154" target="4DqQwGkzJeAgSaI9an-8-117" edge="1">
          <mxGeometry relative="1" as="geometry">
            <Array as="points">
              <mxPoint x="7666" y="2882" />
              <mxPoint x="7626" y="2772" />
            </Array>
          </mxGeometry>
        </mxCell>
        <mxCell id="4DqQwGkzJeAgSaI9an-8-154" value="NH3OHCl" style="rounded=1;whiteSpace=wrap;html=1;absoluteArcSize=1;arcSize=14;strokeWidth=2;" parent="WIyWlLk6GJQsqaUBKTNV-1" vertex="1">
          <mxGeometry x="7719" y="2877" width="80" height="30" as="geometry" />
        </mxCell>
        <mxCell id="4DqQwGkzJeAgSaI9an-8-157" value="" style="edgeStyle=none;curved=1;rounded=0;orthogonalLoop=1;jettySize=auto;html=1;fontSize=12;startSize=8;endSize=8;" parent="WIyWlLk6GJQsqaUBKTNV-1" source="4DqQwGkzJeAgSaI9an-8-156" target="4DqQwGkzJeAgSaI9an-8-154" edge="1">
          <mxGeometry relative="1" as="geometry" />
        </mxCell>
        <mxCell id="4DqQwGkzJeAgSaI9an-8-156" value="Stainless Steel Tank" style="rounded=1;whiteSpace=wrap;html=1;absoluteArcSize=1;arcSize=14;strokeWidth=2;" parent="WIyWlLk6GJQsqaUBKTNV-1" vertex="1">
          <mxGeometry x="7839" y="2872" width="150" height="40" as="geometry" />
        </mxCell>
        <mxCell id="4DqQwGkzJeAgSaI9an-8-158" value="" style="strokeWidth=2;html=1;shape=mxgraph.flowchart.annotation_2;align=left;labelPosition=right;pointerEvents=1;" parent="WIyWlLk6GJQsqaUBKTNV-1" vertex="1">
          <mxGeometry x="7989" y="2818.25" width="50" height="147.5" as="geometry" />
        </mxCell>
        <mxCell id="4DqQwGkzJeAgSaI9an-8-159" value="BaCl2" style="rounded=1;whiteSpace=wrap;html=1;absoluteArcSize=1;arcSize=14;strokeWidth=2;" parent="WIyWlLk6GJQsqaUBKTNV-1" vertex="1">
          <mxGeometry x="8039" y="2803" width="80" height="30" as="geometry" />
        </mxCell>
        <mxCell id="4DqQwGkzJeAgSaI9an-8-160" value="(NH3OH)HSO4" style="rounded=1;whiteSpace=wrap;html=1;absoluteArcSize=1;arcSize=14;strokeWidth=2;" parent="WIyWlLk6GJQsqaUBKTNV-1" vertex="1">
          <mxGeometry x="8039" y="2951" width="117" height="30" as="geometry" />
        </mxCell>
        <mxCell id="4DqQwGkzJeAgSaI9an-8-162" value="" style="edgeStyle=none;curved=1;rounded=0;orthogonalLoop=1;jettySize=auto;html=1;fontSize=12;startSize=8;endSize=8;" parent="WIyWlLk6GJQsqaUBKTNV-1" source="4DqQwGkzJeAgSaI9an-8-161" target="4DqQwGkzJeAgSaI9an-8-159" edge="1">
          <mxGeometry relative="1" as="geometry" />
        </mxCell>
        <mxCell id="4DqQwGkzJeAgSaI9an-8-167" style="edgeStyle=none;curved=1;rounded=0;orthogonalLoop=1;jettySize=auto;html=1;entryX=1;entryY=0.5;entryDx=0;entryDy=0;fontSize=12;startSize=8;endSize=8;" parent="WIyWlLk6GJQsqaUBKTNV-1" target="4DqQwGkzJeAgSaI9an-8-166" edge="1">
          <mxGeometry relative="1" as="geometry">
            <mxPoint x="8211" y="2793" as="sourcePoint" />
            <Array as="points">
              <mxPoint x="8211" y="2743" />
            </Array>
          </mxGeometry>
        </mxCell>
        <mxCell id="4DqQwGkzJeAgSaI9an-8-161" value="Stainless Steel Tank" style="rounded=1;whiteSpace=wrap;html=1;absoluteArcSize=1;arcSize=14;strokeWidth=2;" parent="WIyWlLk6GJQsqaUBKTNV-1" vertex="1">
          <mxGeometry x="8156" y="2798" width="135" height="40" as="geometry" />
        </mxCell>
        <mxCell id="4DqQwGkzJeAgSaI9an-8-163" value="" style="strokeWidth=2;html=1;shape=mxgraph.flowchart.annotation_2;align=left;labelPosition=right;pointerEvents=1;" parent="WIyWlLk6GJQsqaUBKTNV-1" vertex="1">
          <mxGeometry x="8291" y="2770" width="50" height="95" as="geometry" />
        </mxCell>
        <mxCell id="4DqQwGkzJeAgSaI9an-8-166" value="H2S" style="rounded=1;whiteSpace=wrap;html=1;absoluteArcSize=1;arcSize=14;strokeWidth=2;" parent="WIyWlLk6GJQsqaUBKTNV-1" vertex="1">
          <mxGeometry x="8071" y="2733" width="64.5" height="30" as="geometry" />
        </mxCell>
        <mxCell id="4DqQwGkzJeAgSaI9an-8-168" value="H2O" style="rounded=1;whiteSpace=wrap;html=1;absoluteArcSize=1;arcSize=14;strokeWidth=2;fillColor=#60a917;fontColor=#ffffff;strokeColor=#2D7600;" parent="WIyWlLk6GJQsqaUBKTNV-1" vertex="1">
          <mxGeometry x="7136" y="2652" width="50" height="30" as="geometry" />
        </mxCell>
        <mxCell id="4DqQwGkzJeAgSaI9an-8-169" style="edgeStyle=none;curved=1;rounded=0;orthogonalLoop=1;jettySize=auto;html=1;entryX=0.534;entryY=0.041;entryDx=0;entryDy=0;entryPerimeter=0;fontSize=12;startSize=8;endSize=8;" parent="WIyWlLk6GJQsqaUBKTNV-1" source="4DqQwGkzJeAgSaI9an-8-168" target="4DqQwGkzJeAgSaI9an-8-112" edge="1">
          <mxGeometry relative="1" as="geometry">
            <Array as="points">
              <mxPoint x="7071" y="2667" />
            </Array>
          </mxGeometry>
        </mxCell>
        <mxCell id="4DqQwGkzJeAgSaI9an-8-172" value="BaS" style="rounded=1;whiteSpace=wrap;html=1;absoluteArcSize=1;arcSize=14;strokeWidth=2;" parent="WIyWlLk6GJQsqaUBKTNV-1" vertex="1">
          <mxGeometry x="8341" y="2755" width="50" height="30" as="geometry" />
        </mxCell>
        <mxCell id="4DqQwGkzJeAgSaI9an-8-173" value="HCl" style="rounded=1;whiteSpace=wrap;html=1;absoluteArcSize=1;arcSize=14;strokeWidth=2;" parent="WIyWlLk6GJQsqaUBKTNV-1" vertex="1">
          <mxGeometry x="8341" y="2850.13" width="55" height="30" as="geometry" />
        </mxCell>
        <mxCell id="4DqQwGkzJeAgSaI9an-8-174" value="" style="strokeWidth=2;html=1;shape=mxgraph.flowchart.annotation_2;align=left;labelPosition=right;pointerEvents=1;" parent="WIyWlLk6GJQsqaUBKTNV-1" vertex="1">
          <mxGeometry x="8586" y="2743.13" width="50" height="53.75" as="geometry" />
        </mxCell>
        <mxCell id="4DqQwGkzJeAgSaI9an-8-175" value="Coal" style="rounded=1;whiteSpace=wrap;html=1;absoluteArcSize=1;arcSize=14;strokeWidth=2;fillColor=#60a917;fontColor=#ffffff;strokeColor=#2D7600;" parent="WIyWlLk6GJQsqaUBKTNV-1" vertex="1">
          <mxGeometry x="8631" y="2782" width="50" height="30" as="geometry" />
        </mxCell>
        <mxCell id="4DqQwGkzJeAgSaI9an-8-176" value="BaSO4" style="rounded=1;whiteSpace=wrap;html=1;absoluteArcSize=1;arcSize=14;strokeWidth=2;fillColor=#60a917;fontColor=#ffffff;strokeColor=#2D7600;" parent="WIyWlLk6GJQsqaUBKTNV-1" vertex="1">
          <mxGeometry x="8636" y="2728" width="65" height="30" as="geometry" />
        </mxCell>
        <mxCell id="4DqQwGkzJeAgSaI9an-8-178" value="" style="edgeStyle=none;curved=1;rounded=0;orthogonalLoop=1;jettySize=auto;html=1;fontSize=12;startSize=8;endSize=8;" parent="WIyWlLk6GJQsqaUBKTNV-1" source="4DqQwGkzJeAgSaI9an-8-177" target="4DqQwGkzJeAgSaI9an-8-172" edge="1">
          <mxGeometry relative="1" as="geometry" />
        </mxCell>
        <mxCell id="4DqQwGkzJeAgSaI9an-8-177" value="Stainless Steel Tank 800C" style="rounded=1;whiteSpace=wrap;html=1;absoluteArcSize=1;arcSize=14;strokeWidth=2;" parent="WIyWlLk6GJQsqaUBKTNV-1" vertex="1">
          <mxGeometry x="8426" y="2750" width="160" height="40" as="geometry" />
        </mxCell>
        <mxCell id="4DqQwGkzJeAgSaI9an-8-180" value="" style="edgeStyle=none;curved=1;rounded=0;orthogonalLoop=1;jettySize=auto;html=1;fontSize=12;startSize=8;endSize=8;" parent="WIyWlLk6GJQsqaUBKTNV-1" source="4DqQwGkzJeAgSaI9an-8-179" target="4DqQwGkzJeAgSaI9an-8-173" edge="1">
          <mxGeometry relative="1" as="geometry" />
        </mxCell>
        <mxCell id="4DqQwGkzJeAgSaI9an-8-179" value="Graphite burner" style="rounded=1;whiteSpace=wrap;html=1;absoluteArcSize=1;arcSize=14;strokeWidth=2;" parent="WIyWlLk6GJQsqaUBKTNV-1" vertex="1">
          <mxGeometry x="8426" y="2845.13" width="135" height="40" as="geometry" />
        </mxCell>
        <mxCell id="4DqQwGkzJeAgSaI9an-8-181" value="" style="strokeWidth=2;html=1;shape=mxgraph.flowchart.annotation_2;align=left;labelPosition=right;pointerEvents=1;" parent="WIyWlLk6GJQsqaUBKTNV-1" vertex="1">
          <mxGeometry x="8561" y="2835.13" width="50" height="53.75" as="geometry" />
        </mxCell>
        <mxCell id="4DqQwGkzJeAgSaI9an-8-182" value="H2" style="rounded=1;whiteSpace=wrap;html=1;absoluteArcSize=1;arcSize=14;strokeWidth=2;" parent="WIyWlLk6GJQsqaUBKTNV-1" vertex="1">
          <mxGeometry x="8611" y="2823.13" width="40" height="30" as="geometry" />
        </mxCell>
        <mxCell id="4DqQwGkzJeAgSaI9an-8-183" value="Cl2" style="rounded=1;whiteSpace=wrap;html=1;absoluteArcSize=1;arcSize=14;strokeWidth=2;fillColor=#6d8764;strokeColor=#3A5431;fontColor=#ffffff;" parent="WIyWlLk6GJQsqaUBKTNV-1" vertex="1">
          <mxGeometry x="8611" y="2875" width="40" height="30" as="geometry" />
        </mxCell>
        <mxCell id="ap272Ouc-3efmhPf3Gaz-1" value="" style="strokeWidth=2;html=1;shape=mxgraph.flowchart.annotation_2;align=left;labelPosition=right;pointerEvents=1;" parent="WIyWlLk6GJQsqaUBKTNV-1" vertex="1">
          <mxGeometry x="8329" y="2935" width="50" height="62" as="geometry" />
        </mxCell>
        <mxCell id="ap272Ouc-3efmhPf3Gaz-3" value="" style="edgeStyle=none;curved=1;rounded=0;orthogonalLoop=1;jettySize=auto;html=1;fontSize=12;startSize=8;endSize=8;" parent="WIyWlLk6GJQsqaUBKTNV-1" source="ap272Ouc-3efmhPf3Gaz-2" target="4DqQwGkzJeAgSaI9an-8-160" edge="1">
          <mxGeometry relative="1" as="geometry" />
        </mxCell>
        <mxCell id="ap272Ouc-3efmhPf3Gaz-2" value="Stainless Steel Tank" style="rounded=1;whiteSpace=wrap;html=1;absoluteArcSize=1;arcSize=14;strokeWidth=2;" parent="WIyWlLk6GJQsqaUBKTNV-1" vertex="1">
          <mxGeometry x="8179" y="2946" width="150" height="40" as="geometry" />
        </mxCell>
        <mxCell id="ap272Ouc-3efmhPf3Gaz-4" value="2H2O" style="rounded=1;whiteSpace=wrap;html=1;absoluteArcSize=1;arcSize=14;strokeWidth=2;fillColor=#60a917;fontColor=#ffffff;strokeColor=#2D7600;" parent="WIyWlLk6GJQsqaUBKTNV-1" vertex="1">
          <mxGeometry x="8379" y="2920" width="52" height="30" as="geometry" />
        </mxCell>
        <mxCell id="ap272Ouc-3efmhPf3Gaz-5" value="Stainless Steel Tank" style="rounded=1;whiteSpace=wrap;html=1;absoluteArcSize=1;arcSize=14;strokeWidth=2;" parent="WIyWlLk6GJQsqaUBKTNV-1" vertex="1">
          <mxGeometry x="8379" y="2977" width="150" height="40" as="geometry" />
        </mxCell>
        <mxCell id="ap272Ouc-3efmhPf3Gaz-6" value="SO2" style="rounded=1;whiteSpace=wrap;html=1;absoluteArcSize=1;arcSize=14;strokeWidth=2;fillColor=#0050ef;fontColor=#ffffff;strokeColor=#001DBC;" parent="WIyWlLk6GJQsqaUBKTNV-1" vertex="1">
          <mxGeometry x="8571" y="2932" width="45" height="30" as="geometry" />
        </mxCell>
        <mxCell id="ap272Ouc-3efmhPf3Gaz-7" style="edgeStyle=none;curved=1;rounded=0;orthogonalLoop=1;jettySize=auto;html=1;fontSize=12;startSize=8;endSize=8;" parent="WIyWlLk6GJQsqaUBKTNV-1" source="ap272Ouc-3efmhPf3Gaz-6" edge="1">
          <mxGeometry relative="1" as="geometry">
            <mxPoint x="8501" y="2972" as="targetPoint" />
            <Array as="points">
              <mxPoint x="8501" y="2932" />
            </Array>
          </mxGeometry>
        </mxCell>
        <mxCell id="ap272Ouc-3efmhPf3Gaz-9" value="" style="edgeStyle=none;curved=1;rounded=0;orthogonalLoop=1;jettySize=auto;html=1;fontSize=12;startSize=8;endSize=8;" parent="WIyWlLk6GJQsqaUBKTNV-1" source="ap272Ouc-3efmhPf3Gaz-8" target="ap272Ouc-3efmhPf3Gaz-5" edge="1">
          <mxGeometry relative="1" as="geometry" />
        </mxCell>
        <mxCell id="ap272Ouc-3efmhPf3Gaz-8" value="KHSO3" style="rounded=1;whiteSpace=wrap;html=1;absoluteArcSize=1;arcSize=14;strokeWidth=2;" parent="WIyWlLk6GJQsqaUBKTNV-1" vertex="1">
          <mxGeometry x="8561" y="2982" width="65" height="30" as="geometry" />
        </mxCell>
        <mxCell id="ap272Ouc-3efmhPf3Gaz-10" value="KNO2" style="rounded=1;whiteSpace=wrap;html=1;absoluteArcSize=1;arcSize=14;strokeWidth=2;" parent="WIyWlLk6GJQsqaUBKTNV-1" vertex="1">
          <mxGeometry x="8467.5" y="3085" width="52" height="30" as="geometry" />
        </mxCell>
        <mxCell id="ap272Ouc-3efmhPf3Gaz-12" style="edgeStyle=none;curved=1;rounded=0;orthogonalLoop=1;jettySize=auto;html=1;entryX=0.3;entryY=1.043;entryDx=0;entryDy=0;entryPerimeter=0;fontSize=12;startSize=8;endSize=8;exitX=0;exitY=0.5;exitDx=0;exitDy=0;" parent="WIyWlLk6GJQsqaUBKTNV-1" source="ap272Ouc-3efmhPf3Gaz-10" target="ap272Ouc-3efmhPf3Gaz-5" edge="1">
          <mxGeometry relative="1" as="geometry">
            <Array as="points">
              <mxPoint x="8411" y="3102" />
            </Array>
          </mxGeometry>
        </mxCell>
        <mxCell id="ap272Ouc-3efmhPf3Gaz-14" value="" style="edgeStyle=none;curved=1;rounded=0;orthogonalLoop=1;jettySize=auto;html=1;fontSize=12;startSize=8;endSize=8;entryX=1;entryY=0.5;entryDx=0;entryDy=0;" parent="WIyWlLk6GJQsqaUBKTNV-1" source="ap272Ouc-3efmhPf3Gaz-13" target="ap272Ouc-3efmhPf3Gaz-10" edge="1">
          <mxGeometry relative="1" as="geometry" />
        </mxCell>
        <mxCell id="ap272Ouc-3efmhPf3Gaz-70" style="edgeStyle=none;curved=1;rounded=0;orthogonalLoop=1;jettySize=auto;html=1;entryX=1;entryY=0.5;entryDx=0;entryDy=0;fontSize=12;startSize=8;endSize=8;" parent="WIyWlLk6GJQsqaUBKTNV-1" source="ap272Ouc-3efmhPf3Gaz-13" target="ap272Ouc-3efmhPf3Gaz-22" edge="1">
          <mxGeometry relative="1" as="geometry">
            <Array as="points">
              <mxPoint x="8631" y="3051" />
            </Array>
          </mxGeometry>
        </mxCell>
        <mxCell id="ap272Ouc-3efmhPf3Gaz-13" value="Stainless Steel Tank 790C" style="rounded=1;whiteSpace=wrap;html=1;absoluteArcSize=1;arcSize=14;strokeWidth=2;" parent="WIyWlLk6GJQsqaUBKTNV-1" vertex="1">
          <mxGeometry x="8547" y="3080" width="162" height="40" as="geometry" />
        </mxCell>
        <mxCell id="ap272Ouc-3efmhPf3Gaz-16" value="" style="edgeStyle=none;curved=1;rounded=0;orthogonalLoop=1;jettySize=auto;html=1;fontSize=12;startSize=8;endSize=8;" parent="WIyWlLk6GJQsqaUBKTNV-1" source="ap272Ouc-3efmhPf3Gaz-15" target="ap272Ouc-3efmhPf3Gaz-8" edge="1">
          <mxGeometry relative="1" as="geometry" />
        </mxCell>
        <mxCell id="ap272Ouc-3efmhPf3Gaz-15" value="Stainless Steel Tank" style="rounded=1;whiteSpace=wrap;html=1;absoluteArcSize=1;arcSize=14;strokeWidth=2;" parent="WIyWlLk6GJQsqaUBKTNV-1" vertex="1">
          <mxGeometry x="8649" y="2977" width="150" height="40" as="geometry" />
        </mxCell>
        <mxCell id="ap272Ouc-3efmhPf3Gaz-17" value="" style="strokeWidth=2;html=1;shape=mxgraph.flowchart.annotation_2;align=left;labelPosition=right;pointerEvents=1;" parent="WIyWlLk6GJQsqaUBKTNV-1" vertex="1">
          <mxGeometry x="8799" y="2973.25" width="50" height="47.5" as="geometry" />
        </mxCell>
        <mxCell id="ap272Ouc-3efmhPf3Gaz-18" value="K2CO3" style="rounded=1;whiteSpace=wrap;html=1;absoluteArcSize=1;arcSize=14;strokeWidth=2;fillColor=#1ba1e2;fontColor=#ffffff;strokeColor=#006EAF;" parent="WIyWlLk6GJQsqaUBKTNV-1" vertex="1">
          <mxGeometry x="8849" y="3006" width="62" height="30" as="geometry" />
        </mxCell>
        <mxCell id="ap272Ouc-3efmhPf3Gaz-19" value="SO2" style="rounded=1;whiteSpace=wrap;html=1;absoluteArcSize=1;arcSize=14;strokeWidth=2;fillColor=#0050ef;fontColor=#ffffff;strokeColor=#001DBC;" parent="WIyWlLk6GJQsqaUBKTNV-1" vertex="1">
          <mxGeometry x="8849" y="2958" width="45" height="30" as="geometry" />
        </mxCell>
        <mxCell id="ap272Ouc-3efmhPf3Gaz-21" value="" style="edgeStyle=none;curved=1;rounded=0;orthogonalLoop=1;jettySize=auto;html=1;fontSize=12;startSize=8;endSize=8;" parent="WIyWlLk6GJQsqaUBKTNV-1" source="ap272Ouc-3efmhPf3Gaz-20" target="ap272Ouc-3efmhPf3Gaz-13" edge="1">
          <mxGeometry relative="1" as="geometry" />
        </mxCell>
        <mxCell id="ap272Ouc-3efmhPf3Gaz-20" value="KNO3" style="rounded=1;whiteSpace=wrap;html=1;absoluteArcSize=1;arcSize=14;strokeWidth=2;" parent="WIyWlLk6GJQsqaUBKTNV-1" vertex="1">
          <mxGeometry x="8731" y="3085" width="60" height="30" as="geometry" />
        </mxCell>
        <mxCell id="ap272Ouc-3efmhPf3Gaz-22" value="O2" style="rounded=1;whiteSpace=wrap;html=1;absoluteArcSize=1;arcSize=14;strokeWidth=2;" parent="WIyWlLk6GJQsqaUBKTNV-1" vertex="1">
          <mxGeometry x="8554" y="3036" width="40" height="30" as="geometry" />
        </mxCell>
        <mxCell id="ap272Ouc-3efmhPf3Gaz-25" value="CO2" style="rounded=1;whiteSpace=wrap;html=1;absoluteArcSize=1;arcSize=14;strokeWidth=2;" parent="WIyWlLk6GJQsqaUBKTNV-1" vertex="1">
          <mxGeometry x="8029" y="2600" width="64.5" height="30" as="geometry" />
        </mxCell>
        <mxCell id="ap272Ouc-3efmhPf3Gaz-28" value="CO2" style="rounded=1;whiteSpace=wrap;html=1;absoluteArcSize=1;arcSize=14;strokeWidth=2;" parent="WIyWlLk6GJQsqaUBKTNV-1" vertex="1">
          <mxGeometry x="8403" y="2703" width="64.5" height="30" as="geometry" />
        </mxCell>
        <mxCell id="ap272Ouc-3efmhPf3Gaz-29" style="edgeStyle=none;curved=1;rounded=0;orthogonalLoop=1;jettySize=auto;html=1;entryX=0.964;entryY=0.403;entryDx=0;entryDy=0;entryPerimeter=0;fontSize=12;startSize=8;endSize=8;" parent="WIyWlLk6GJQsqaUBKTNV-1" source="4DqQwGkzJeAgSaI9an-8-177" target="ap272Ouc-3efmhPf3Gaz-28" edge="1">
          <mxGeometry relative="1" as="geometry">
            <Array as="points">
              <mxPoint x="8511" y="2712" />
            </Array>
          </mxGeometry>
        </mxCell>
        <mxCell id="ap272Ouc-3efmhPf3Gaz-31" value="" style="strokeWidth=2;html=1;shape=mxgraph.flowchart.annotation_2;align=left;labelPosition=right;pointerEvents=1;" parent="WIyWlLk6GJQsqaUBKTNV-1" vertex="1">
          <mxGeometry x="8969" y="3067.25" width="50" height="65.5" as="geometry" />
        </mxCell>
        <mxCell id="ap272Ouc-3efmhPf3Gaz-36" style="edgeStyle=none;curved=1;rounded=0;orthogonalLoop=1;jettySize=auto;html=1;entryX=1;entryY=0.5;entryDx=0;entryDy=0;fontSize=12;startSize=8;endSize=8;" parent="WIyWlLk6GJQsqaUBKTNV-1" source="ap272Ouc-3efmhPf3Gaz-32" target="ap272Ouc-3efmhPf3Gaz-20" edge="1">
          <mxGeometry relative="1" as="geometry" />
        </mxCell>
        <mxCell id="ap272Ouc-3efmhPf3Gaz-32" value="Stainless Steel Tank" style="rounded=1;whiteSpace=wrap;html=1;absoluteArcSize=1;arcSize=14;strokeWidth=2;" parent="WIyWlLk6GJQsqaUBKTNV-1" vertex="1">
          <mxGeometry x="8819" y="3080" width="150" height="40" as="geometry" />
        </mxCell>
        <mxCell id="ap272Ouc-3efmhPf3Gaz-37" value="HNO3" style="rounded=1;whiteSpace=wrap;html=1;absoluteArcSize=1;arcSize=14;strokeWidth=2;fillColor=#6a00ff;fontColor=#ffffff;strokeColor=#3700CC;" parent="WIyWlLk6GJQsqaUBKTNV-1" vertex="1">
          <mxGeometry x="9019" y="3118" width="60" height="30" as="geometry" />
        </mxCell>
        <mxCell id="ap272Ouc-3efmhPf3Gaz-38" value="KOH" style="rounded=1;whiteSpace=wrap;html=1;absoluteArcSize=1;arcSize=14;strokeWidth=2;" parent="WIyWlLk6GJQsqaUBKTNV-1" vertex="1">
          <mxGeometry x="9019" y="3052.5" width="60" height="30" as="geometry" />
        </mxCell>
        <mxCell id="ap272Ouc-3efmhPf3Gaz-39" value="" style="strokeWidth=2;html=1;shape=mxgraph.flowchart.annotation_2;align=left;labelPosition=right;pointerEvents=1;" parent="WIyWlLk6GJQsqaUBKTNV-1" vertex="1">
          <mxGeometry x="9466" y="3043" width="50" height="49" as="geometry" />
        </mxCell>
        <mxCell id="ap272Ouc-3efmhPf3Gaz-40" value="K2CO3" style="rounded=1;whiteSpace=wrap;html=1;absoluteArcSize=1;arcSize=14;strokeWidth=2;fillColor=#1ba1e2;fontColor=#ffffff;strokeColor=#006EAF;" parent="WIyWlLk6GJQsqaUBKTNV-1" vertex="1">
          <mxGeometry x="9516" y="3028" width="62" height="30" as="geometry" />
        </mxCell>
        <mxCell id="ap272Ouc-3efmhPf3Gaz-44" value="" style="edgeStyle=none;curved=1;rounded=0;orthogonalLoop=1;jettySize=auto;html=1;fontSize=12;startSize=8;endSize=8;" parent="WIyWlLk6GJQsqaUBKTNV-1" source="ap272Ouc-3efmhPf3Gaz-41" target="ap272Ouc-3efmhPf3Gaz-38" edge="1">
          <mxGeometry relative="1" as="geometry" />
        </mxCell>
        <mxCell id="ap272Ouc-3efmhPf3Gaz-51" style="edgeStyle=none;curved=1;rounded=0;orthogonalLoop=1;jettySize=auto;html=1;entryX=0;entryY=0.5;entryDx=0;entryDy=0;fontSize=12;startSize=8;endSize=8;" parent="WIyWlLk6GJQsqaUBKTNV-1" source="ap272Ouc-3efmhPf3Gaz-41" target="ap272Ouc-3efmhPf3Gaz-49" edge="1">
          <mxGeometry relative="1" as="geometry">
            <Array as="points">
              <mxPoint x="9171" y="3012" />
            </Array>
          </mxGeometry>
        </mxCell>
        <mxCell id="ap272Ouc-3efmhPf3Gaz-41" value="Water Evaporator" style="rounded=1;whiteSpace=wrap;html=1;absoluteArcSize=1;arcSize=14;strokeWidth=2;" parent="WIyWlLk6GJQsqaUBKTNV-1" vertex="1">
          <mxGeometry x="9111" y="3047.5" width="150" height="40" as="geometry" />
        </mxCell>
        <mxCell id="ap272Ouc-3efmhPf3Gaz-45" value="" style="edgeStyle=none;curved=1;rounded=0;orthogonalLoop=1;jettySize=auto;html=1;fontSize=12;startSize=8;endSize=8;" parent="WIyWlLk6GJQsqaUBKTNV-1" source="ap272Ouc-3efmhPf3Gaz-43" target="ap272Ouc-3efmhPf3Gaz-41" edge="1">
          <mxGeometry relative="1" as="geometry" />
        </mxCell>
        <mxCell id="ap272Ouc-3efmhPf3Gaz-54" style="edgeStyle=none;curved=1;rounded=0;orthogonalLoop=1;jettySize=auto;html=1;fontSize=12;startSize=8;endSize=8;exitX=0.77;exitY=1.029;exitDx=0;exitDy=0;exitPerimeter=0;" parent="WIyWlLk6GJQsqaUBKTNV-1" source="ap272Ouc-3efmhPf3Gaz-43" edge="1">
          <mxGeometry relative="1" as="geometry">
            <mxPoint x="9376" y="3122" as="targetPoint" />
            <Array as="points">
              <mxPoint x="9425" y="3122" />
            </Array>
          </mxGeometry>
        </mxCell>
        <mxCell id="ap272Ouc-3efmhPf3Gaz-43" value="Stainless Steel Precipitation&lt;div&gt;separation Tank&lt;/div&gt;" style="rounded=1;whiteSpace=wrap;html=1;absoluteArcSize=1;arcSize=14;strokeWidth=2;" parent="WIyWlLk6GJQsqaUBKTNV-1" vertex="1">
          <mxGeometry x="9286" y="3047.5" width="180" height="40" as="geometry" />
        </mxCell>
        <mxCell id="ap272Ouc-3efmhPf3Gaz-46" value="Ca(OH)2" style="rounded=1;whiteSpace=wrap;html=1;absoluteArcSize=1;arcSize=14;strokeWidth=2;fillColor=#60a917;fontColor=#ffffff;strokeColor=#2D7600;" parent="WIyWlLk6GJQsqaUBKTNV-1" vertex="1">
          <mxGeometry x="9516" y="3077" width="65" height="30" as="geometry" />
        </mxCell>
        <mxCell id="ap272Ouc-3efmhPf3Gaz-48" value="" style="edgeStyle=none;curved=1;rounded=0;orthogonalLoop=1;jettySize=auto;html=1;fontSize=12;startSize=8;endSize=8;" parent="WIyWlLk6GJQsqaUBKTNV-1" source="ap272Ouc-3efmhPf3Gaz-47" target="ap272Ouc-3efmhPf3Gaz-43" edge="1">
          <mxGeometry relative="1" as="geometry">
            <Array as="points">
              <mxPoint x="9376" y="3012" />
            </Array>
          </mxGeometry>
        </mxCell>
        <mxCell id="ap272Ouc-3efmhPf3Gaz-47" value="H2O" style="rounded=1;whiteSpace=wrap;html=1;absoluteArcSize=1;arcSize=14;strokeWidth=2;fillColor=#60a917;fontColor=#ffffff;strokeColor=#2D7600;" parent="WIyWlLk6GJQsqaUBKTNV-1" vertex="1">
          <mxGeometry x="9431" y="3006" width="57" height="30" as="geometry" />
        </mxCell>
        <mxCell id="ap272Ouc-3efmhPf3Gaz-49" value="H2O" style="rounded=1;whiteSpace=wrap;html=1;absoluteArcSize=1;arcSize=14;strokeWidth=2;" parent="WIyWlLk6GJQsqaUBKTNV-1" vertex="1">
          <mxGeometry x="9221" y="2998" width="57" height="30" as="geometry" />
        </mxCell>
        <mxCell id="ap272Ouc-3efmhPf3Gaz-52" value="CaCO3 (Persipitate)" style="rounded=1;whiteSpace=wrap;html=1;absoluteArcSize=1;arcSize=14;strokeWidth=2;" parent="WIyWlLk6GJQsqaUBKTNV-1" vertex="1">
          <mxGeometry x="9251" y="3107" width="124" height="30" as="geometry" />
        </mxCell>
        <mxCell id="ap272Ouc-3efmhPf3Gaz-57" value="" style="edgeStyle=none;curved=1;rounded=0;orthogonalLoop=1;jettySize=auto;html=1;fontSize=12;startSize=8;endSize=8;" parent="WIyWlLk6GJQsqaUBKTNV-1" source="ap272Ouc-3efmhPf3Gaz-56" target="4DqQwGkzJeAgSaI9an-8-119" edge="1">
          <mxGeometry relative="1" as="geometry" />
        </mxCell>
        <mxCell id="ap272Ouc-3efmhPf3Gaz-56" value="Stainless Steel Tank" style="rounded=1;whiteSpace=wrap;html=1;absoluteArcSize=1;arcSize=14;strokeWidth=2;" parent="WIyWlLk6GJQsqaUBKTNV-1" vertex="1">
          <mxGeometry x="7783" y="3118" width="150" height="40" as="geometry" />
        </mxCell>
        <mxCell id="ap272Ouc-3efmhPf3Gaz-58" value="HNO3" style="rounded=1;whiteSpace=wrap;html=1;absoluteArcSize=1;arcSize=14;strokeWidth=2;fillColor=#6a00ff;fontColor=#ffffff;strokeColor=#3700CC;" parent="WIyWlLk6GJQsqaUBKTNV-1" vertex="1">
          <mxGeometry x="7901" y="3068" width="60" height="30" as="geometry" />
        </mxCell>
        <mxCell id="ap272Ouc-3efmhPf3Gaz-59" style="edgeStyle=none;curved=1;rounded=0;orthogonalLoop=1;jettySize=auto;html=1;entryX=0.433;entryY=0;entryDx=0;entryDy=0;entryPerimeter=0;fontSize=12;startSize=8;endSize=8;" parent="WIyWlLk6GJQsqaUBKTNV-1" source="ap272Ouc-3efmhPf3Gaz-58" target="ap272Ouc-3efmhPf3Gaz-56" edge="1">
          <mxGeometry relative="1" as="geometry">
            <Array as="points">
              <mxPoint x="7848" y="3078" />
            </Array>
          </mxGeometry>
        </mxCell>
        <mxCell id="ap272Ouc-3efmhPf3Gaz-61" value="" style="edgeStyle=none;curved=1;rounded=0;orthogonalLoop=1;jettySize=auto;html=1;fontSize=12;startSize=8;endSize=8;" parent="WIyWlLk6GJQsqaUBKTNV-1" source="ap272Ouc-3efmhPf3Gaz-60" target="ap272Ouc-3efmhPf3Gaz-56" edge="1">
          <mxGeometry relative="1" as="geometry" />
        </mxCell>
        <mxCell id="ap272Ouc-3efmhPf3Gaz-60" value="Spent Nuclear Fuel" style="rounded=1;whiteSpace=wrap;html=1;absoluteArcSize=1;arcSize=14;strokeWidth=2;" parent="WIyWlLk6GJQsqaUBKTNV-1" vertex="1">
          <mxGeometry x="7961" y="3125" width="142" height="30" as="geometry" />
        </mxCell>
        <mxCell id="ap272Ouc-3efmhPf3Gaz-62" value="Kerosene" style="rounded=1;whiteSpace=wrap;html=1;absoluteArcSize=1;arcSize=14;strokeWidth=2;" parent="WIyWlLk6GJQsqaUBKTNV-1" vertex="1">
          <mxGeometry x="7922.5" y="3184.75" width="88.5" height="30" as="geometry" />
        </mxCell>
        <mxCell id="ap272Ouc-3efmhPf3Gaz-63" style="edgeStyle=none;curved=1;rounded=0;orthogonalLoop=1;jettySize=auto;html=1;entryX=0.657;entryY=0.988;entryDx=0;entryDy=0;entryPerimeter=0;fontSize=12;startSize=8;endSize=8;" parent="WIyWlLk6GJQsqaUBKTNV-1" source="ap272Ouc-3efmhPf3Gaz-62" target="ap272Ouc-3efmhPf3Gaz-56" edge="1">
          <mxGeometry relative="1" as="geometry">
            <Array as="points">
              <mxPoint x="7881" y="3200" />
            </Array>
          </mxGeometry>
        </mxCell>
        <mxCell id="ap272Ouc-3efmhPf3Gaz-66" style="edgeStyle=none;curved=1;rounded=0;orthogonalLoop=1;jettySize=auto;html=1;entryX=0.448;entryY=0.971;entryDx=0;entryDy=0;entryPerimeter=0;fontSize=12;startSize=8;endSize=8;" parent="WIyWlLk6GJQsqaUBKTNV-1" source="4DqQwGkzJeAgSaI9an-8-119" target="4DqQwGkzJeAgSaI9an-8-117" edge="1">
          <mxGeometry relative="1" as="geometry">
            <Array as="points">
              <mxPoint x="7610" y="3021" />
              <mxPoint x="7481" y="2881" />
            </Array>
          </mxGeometry>
        </mxCell>
        <mxCell id="ap272Ouc-3efmhPf3Gaz-69" style="edgeStyle=none;curved=1;rounded=0;orthogonalLoop=1;jettySize=auto;html=1;fontSize=12;startSize=8;endSize=8;" parent="WIyWlLk6GJQsqaUBKTNV-1" source="ap272Ouc-3efmhPf3Gaz-68" edge="1">
          <mxGeometry relative="1" as="geometry">
            <mxPoint x="7831" y="3159" as="targetPoint" />
            <Array as="points">
              <mxPoint x="7821" y="3289" />
            </Array>
          </mxGeometry>
        </mxCell>
        <mxCell id="ap272Ouc-3efmhPf3Gaz-68" value="TPB (Persipitate)" style="rounded=1;whiteSpace=wrap;html=1;absoluteArcSize=1;arcSize=14;strokeWidth=2;" parent="WIyWlLk6GJQsqaUBKTNV-1" vertex="1">
          <mxGeometry x="7980.5" y="3269" width="120.5" height="30" as="geometry" />
        </mxCell>
        <mxCell id="ap272Ouc-3efmhPf3Gaz-71" value="" style="strokeWidth=2;html=1;shape=mxgraph.flowchart.annotation_2;align=left;labelPosition=right;pointerEvents=1;" parent="WIyWlLk6GJQsqaUBKTNV-1" vertex="1">
          <mxGeometry x="8301" y="3234" width="50" height="100" as="geometry" />
        </mxCell>
        <mxCell id="ap272Ouc-3efmhPf3Gaz-74" value="HCl" style="rounded=1;whiteSpace=wrap;html=1;absoluteArcSize=1;arcSize=14;strokeWidth=2;" parent="WIyWlLk6GJQsqaUBKTNV-1" vertex="1">
          <mxGeometry x="8079" y="3214.75" width="48.5" height="30" as="geometry" />
        </mxCell>
        <mxCell id="ap272Ouc-3efmhPf3Gaz-78" style="edgeStyle=none;curved=1;rounded=0;orthogonalLoop=1;jettySize=auto;html=1;entryX=1;entryY=0.5;entryDx=0;entryDy=0;fontSize=12;startSize=8;endSize=8;" parent="WIyWlLk6GJQsqaUBKTNV-1" source="ap272Ouc-3efmhPf3Gaz-76" target="ap272Ouc-3efmhPf3Gaz-68" edge="1">
          <mxGeometry relative="1" as="geometry" />
        </mxCell>
        <mxCell id="ap272Ouc-3efmhPf3Gaz-79" style="edgeStyle=none;curved=1;rounded=0;orthogonalLoop=1;jettySize=auto;html=1;entryX=1;entryY=0.5;entryDx=0;entryDy=0;fontSize=12;startSize=8;endSize=8;" parent="WIyWlLk6GJQsqaUBKTNV-1" source="ap272Ouc-3efmhPf3Gaz-76" target="ap272Ouc-3efmhPf3Gaz-74" edge="1">
          <mxGeometry relative="1" as="geometry">
            <Array as="points">
              <mxPoint x="8191" y="3230" />
            </Array>
          </mxGeometry>
        </mxCell>
        <mxCell id="ap272Ouc-3efmhPf3Gaz-76" value="Stainless Steel Precipitation&lt;div&gt;separation Tank&lt;/div&gt;" style="rounded=1;whiteSpace=wrap;html=1;absoluteArcSize=1;arcSize=14;strokeWidth=2;" parent="WIyWlLk6GJQsqaUBKTNV-1" vertex="1">
          <mxGeometry x="8121" y="3264" width="180" height="40" as="geometry" />
        </mxCell>
        <mxCell id="ap272Ouc-3efmhPf3Gaz-80" value="POCl3" style="rounded=1;whiteSpace=wrap;html=1;absoluteArcSize=1;arcSize=14;strokeWidth=2;" parent="WIyWlLk6GJQsqaUBKTNV-1" vertex="1">
          <mxGeometry x="8351" y="3319" width="63.5" height="30" as="geometry" />
        </mxCell>
        <mxCell id="ap272Ouc-3efmhPf3Gaz-81" value="3C4H9OH" style="rounded=1;whiteSpace=wrap;html=1;absoluteArcSize=1;arcSize=14;strokeWidth=2;" parent="WIyWlLk6GJQsqaUBKTNV-1" vertex="1">
          <mxGeometry x="8351" y="3219" width="90" height="30" as="geometry" />
        </mxCell>
        <mxCell id="ap272Ouc-3efmhPf3Gaz-85" value="" style="edgeStyle=none;curved=1;rounded=0;orthogonalLoop=1;jettySize=auto;html=1;fontSize=12;startSize=8;endSize=8;" parent="WIyWlLk6GJQsqaUBKTNV-1" source="ap272Ouc-3efmhPf3Gaz-83" target="ap272Ouc-3efmhPf3Gaz-81" edge="1">
          <mxGeometry relative="1" as="geometry" />
        </mxCell>
        <mxCell id="ap272Ouc-3efmhPf3Gaz-83" value="Stainless Steel Tank&lt;div&gt;(Rhodium Catalyst)&lt;/div&gt;" style="rounded=1;whiteSpace=wrap;html=1;absoluteArcSize=1;arcSize=14;strokeWidth=2;" parent="WIyWlLk6GJQsqaUBKTNV-1" vertex="1">
          <mxGeometry x="8467.5" y="3211.37" width="153" height="45.25" as="geometry" />
        </mxCell>
        <mxCell id="ap272Ouc-3efmhPf3Gaz-86" value="H2" style="rounded=1;whiteSpace=wrap;html=1;absoluteArcSize=1;arcSize=14;strokeWidth=2;" parent="WIyWlLk6GJQsqaUBKTNV-1" vertex="1">
          <mxGeometry x="8454" y="3158" width="40" height="30" as="geometry" />
        </mxCell>
        <mxCell id="ap272Ouc-3efmhPf3Gaz-87" value="CO" style="rounded=1;whiteSpace=wrap;html=1;absoluteArcSize=1;arcSize=14;strokeWidth=2;" parent="WIyWlLk6GJQsqaUBKTNV-1" vertex="1">
          <mxGeometry x="8599" y="3158" width="40" height="30" as="geometry" />
        </mxCell>
        <mxCell id="ap272Ouc-3efmhPf3Gaz-88" style="edgeStyle=none;curved=1;rounded=0;orthogonalLoop=1;jettySize=auto;html=1;entryX=0.35;entryY=0.024;entryDx=0;entryDy=0;entryPerimeter=0;fontSize=12;startSize=8;endSize=8;" parent="WIyWlLk6GJQsqaUBKTNV-1" source="ap272Ouc-3efmhPf3Gaz-86" target="ap272Ouc-3efmhPf3Gaz-83" edge="1">
          <mxGeometry relative="1" as="geometry">
            <Array as="points">
              <mxPoint x="8520" y="3170" />
            </Array>
          </mxGeometry>
        </mxCell>
        <mxCell id="ap272Ouc-3efmhPf3Gaz-89" style="edgeStyle=none;curved=1;rounded=0;orthogonalLoop=1;jettySize=auto;html=1;entryX=0.637;entryY=0.007;entryDx=0;entryDy=0;entryPerimeter=0;fontSize=12;startSize=8;endSize=8;" parent="WIyWlLk6GJQsqaUBKTNV-1" source="ap272Ouc-3efmhPf3Gaz-87" target="ap272Ouc-3efmhPf3Gaz-83" edge="1">
          <mxGeometry relative="1" as="geometry">
            <Array as="points">
              <mxPoint x="8560" y="3170" />
            </Array>
          </mxGeometry>
        </mxCell>
        <mxCell id="ap272Ouc-3efmhPf3Gaz-91" value="" style="edgeStyle=none;curved=1;rounded=0;orthogonalLoop=1;jettySize=auto;html=1;fontSize=12;startSize=8;endSize=8;" parent="WIyWlLk6GJQsqaUBKTNV-1" source="ap272Ouc-3efmhPf3Gaz-90" target="ap272Ouc-3efmhPf3Gaz-83" edge="1">
          <mxGeometry relative="1" as="geometry" />
        </mxCell>
        <mxCell id="ap272Ouc-3efmhPf3Gaz-90" value="CH3CH=CH2" style="rounded=1;whiteSpace=wrap;html=1;absoluteArcSize=1;arcSize=14;strokeWidth=2;" parent="WIyWlLk6GJQsqaUBKTNV-1" vertex="1">
          <mxGeometry x="8660" y="3219" width="90" height="30" as="geometry" />
        </mxCell>
        <mxCell id="ap272Ouc-3efmhPf3Gaz-93" value="" style="edgeStyle=none;curved=1;rounded=0;orthogonalLoop=1;jettySize=auto;html=1;fontSize=12;startSize=8;endSize=8;" parent="WIyWlLk6GJQsqaUBKTNV-1" source="ap272Ouc-3efmhPf3Gaz-92" target="ap272Ouc-3efmhPf3Gaz-90" edge="1">
          <mxGeometry relative="1" as="geometry" />
        </mxCell>
        <mxCell id="ap272Ouc-3efmhPf3Gaz-92" value="Steam Cracking" style="rounded=1;whiteSpace=wrap;html=1;absoluteArcSize=1;arcSize=14;strokeWidth=2;" parent="WIyWlLk6GJQsqaUBKTNV-1" vertex="1">
          <mxGeometry x="8799" y="3216.62" width="121" height="40" as="geometry" />
        </mxCell>
        <mxCell id="ap272Ouc-3efmhPf3Gaz-95" value="" style="edgeStyle=none;curved=1;rounded=0;orthogonalLoop=1;jettySize=auto;html=1;fontSize=12;startSize=8;endSize=8;" parent="WIyWlLk6GJQsqaUBKTNV-1" source="ap272Ouc-3efmhPf3Gaz-94" target="ap272Ouc-3efmhPf3Gaz-80" edge="1">
          <mxGeometry relative="1" as="geometry" />
        </mxCell>
        <mxCell id="ap272Ouc-3efmhPf3Gaz-94" value="Stainless Steel Tank" style="rounded=1;whiteSpace=wrap;html=1;absoluteArcSize=1;arcSize=14;strokeWidth=2;" parent="WIyWlLk6GJQsqaUBKTNV-1" vertex="1">
          <mxGeometry x="8444" y="3314" width="150" height="40" as="geometry" />
        </mxCell>
        <mxCell id="ap272Ouc-3efmhPf3Gaz-96" value="" style="strokeWidth=2;html=1;shape=mxgraph.flowchart.annotation_2;align=left;labelPosition=right;pointerEvents=1;" parent="WIyWlLk6GJQsqaUBKTNV-1" vertex="1">
          <mxGeometry x="8594" y="3305" width="50" height="56" as="geometry" />
        </mxCell>
        <mxCell id="ap272Ouc-3efmhPf3Gaz-98" value="O2" style="rounded=1;whiteSpace=wrap;html=1;absoluteArcSize=1;arcSize=14;strokeWidth=2;" parent="WIyWlLk6GJQsqaUBKTNV-1" vertex="1">
          <mxGeometry x="8644" y="3289" width="36" height="30" as="geometry" />
        </mxCell>
        <mxCell id="ap272Ouc-3efmhPf3Gaz-99" value="PCl3" style="rounded=1;whiteSpace=wrap;html=1;absoluteArcSize=1;arcSize=14;strokeWidth=2;" parent="WIyWlLk6GJQsqaUBKTNV-1" vertex="1">
          <mxGeometry x="8644" y="3346" width="56" height="30" as="geometry" />
        </mxCell>
        <mxCell id="ap272Ouc-3efmhPf3Gaz-101" value="" style="edgeStyle=none;curved=1;rounded=0;orthogonalLoop=1;jettySize=auto;html=1;fontSize=12;startSize=8;endSize=8;" parent="WIyWlLk6GJQsqaUBKTNV-1" source="ap272Ouc-3efmhPf3Gaz-100" target="ap272Ouc-3efmhPf3Gaz-99" edge="1">
          <mxGeometry relative="1" as="geometry" />
        </mxCell>
        <mxCell id="ap272Ouc-3efmhPf3Gaz-100" value="Stainless Steel Tank" style="rounded=1;whiteSpace=wrap;html=1;absoluteArcSize=1;arcSize=14;strokeWidth=2;" parent="WIyWlLk6GJQsqaUBKTNV-1" vertex="1">
          <mxGeometry x="8731" y="3339" width="150" height="40" as="geometry" />
        </mxCell>
        <mxCell id="ap272Ouc-3efmhPf3Gaz-102" value="" style="strokeWidth=2;html=1;shape=mxgraph.flowchart.annotation_2;align=left;labelPosition=right;pointerEvents=1;" parent="WIyWlLk6GJQsqaUBKTNV-1" vertex="1">
          <mxGeometry x="8881" y="3331" width="50" height="56" as="geometry" />
        </mxCell>
        <mxCell id="ap272Ouc-3efmhPf3Gaz-103" value="6Cl2" style="rounded=1;whiteSpace=wrap;html=1;absoluteArcSize=1;arcSize=14;strokeWidth=2;fillColor=#6d8764;fontColor=#ffffff;strokeColor=#3A5431;" parent="WIyWlLk6GJQsqaUBKTNV-1" vertex="1">
          <mxGeometry x="8931" y="3316" width="49" height="30" as="geometry" />
        </mxCell>
        <mxCell id="ap272Ouc-3efmhPf3Gaz-105" value="P4" style="rounded=1;whiteSpace=wrap;html=1;absoluteArcSize=1;arcSize=14;strokeWidth=2;" parent="WIyWlLk6GJQsqaUBKTNV-1" vertex="1">
          <mxGeometry x="8931" y="3372" width="36" height="30" as="geometry" />
        </mxCell>
        <mxCell id="ap272Ouc-3efmhPf3Gaz-109" style="edgeStyle=none;curved=1;rounded=0;orthogonalLoop=1;jettySize=auto;html=1;entryX=1;entryY=0.5;entryDx=0;entryDy=0;fontSize=12;startSize=8;endSize=8;" parent="WIyWlLk6GJQsqaUBKTNV-1" source="ap272Ouc-3efmhPf3Gaz-106" target="ap272Ouc-3efmhPf3Gaz-105" edge="1">
          <mxGeometry relative="1" as="geometry" />
        </mxCell>
        <mxCell id="ap272Ouc-3efmhPf3Gaz-120" style="edgeStyle=none;curved=1;rounded=0;orthogonalLoop=1;jettySize=auto;html=1;entryX=0.5;entryY=1;entryDx=0;entryDy=0;fontSize=12;startSize=8;endSize=8;exitX=0.25;exitY=0;exitDx=0;exitDy=0;" parent="WIyWlLk6GJQsqaUBKTNV-1" source="ap272Ouc-3efmhPf3Gaz-106" target="ap272Ouc-3efmhPf3Gaz-118" edge="1">
          <mxGeometry relative="1" as="geometry" />
        </mxCell>
        <mxCell id="ap272Ouc-3efmhPf3Gaz-106" value="Stainless Steel Tank 800C" style="rounded=1;whiteSpace=wrap;html=1;absoluteArcSize=1;arcSize=14;strokeWidth=2;" parent="WIyWlLk6GJQsqaUBKTNV-1" vertex="1">
          <mxGeometry x="9000" y="3367" width="160" height="40" as="geometry" />
        </mxCell>
        <mxCell id="ap272Ouc-3efmhPf3Gaz-111" value="Coa&lt;span style=&quot;color: rgba(0, 0, 0, 0); font-family: monospace; font-size: 0px; text-align: start; text-wrap-mode: nowrap;&quot;&gt;%3CmxGraphModel%3E%3Croot%3E%3CmxCell%20id%3D%220%22%2F%3E%3CmxCell%20id%3D%221%22%20parent%3D%220%22%2F%3E%3CmxCell%20id%3D%222%22%20value%3D%22Iron%22%20style%3D%22rounded%3D1%3BwhiteSpace%3Dwrap%3Bhtml%3D1%3BabsoluteArcSize%3D1%3BarcSize%3D14%3BstrokeWidth%3D2%3B%22%20vertex%3D%221%22%20parent%3D%221%22%3E%3CmxGeometry%20x%3D%227916%22%20y%3D%222595%22%20width%3D%2250%22%20height%3D%2230%22%20as%3D%22geometry%22%2F%3E%3C%2FmxCell%3E%3C%2Froot%3E%3C%2FmxGraphModel%3E&lt;/span&gt;l" style="rounded=1;whiteSpace=wrap;html=1;absoluteArcSize=1;arcSize=14;strokeWidth=2;fillColor=#60a917;fontColor=#ffffff;strokeColor=#2D7600;" parent="WIyWlLk6GJQsqaUBKTNV-1" vertex="1">
          <mxGeometry x="9139" y="3314" width="50" height="30" as="geometry" />
        </mxCell>
        <mxCell id="ap272Ouc-3efmhPf3Gaz-112" value="2Ca3(PO4)2" style="rounded=1;whiteSpace=wrap;html=1;absoluteArcSize=1;arcSize=14;strokeWidth=2;fillColor=#60a917;fontColor=#ffffff;strokeColor=#2D7600;" parent="WIyWlLk6GJQsqaUBKTNV-1" vertex="1">
          <mxGeometry x="9150" y="3440" width="89" height="30" as="geometry" />
        </mxCell>
        <mxCell id="ap272Ouc-3efmhPf3Gaz-114" value="" style="edgeStyle=none;curved=1;rounded=0;orthogonalLoop=1;jettySize=auto;html=1;fontSize=12;startSize=8;endSize=8;" parent="WIyWlLk6GJQsqaUBKTNV-1" source="ap272Ouc-3efmhPf3Gaz-113" target="ap272Ouc-3efmhPf3Gaz-106" edge="1">
          <mxGeometry relative="1" as="geometry" />
        </mxCell>
        <mxCell id="ap272Ouc-3efmhPf3Gaz-113" value="Quarz" style="rounded=1;whiteSpace=wrap;html=1;absoluteArcSize=1;arcSize=14;strokeWidth=2;fillColor=#60a917;fontColor=#ffffff;strokeColor=#2D7600;" parent="WIyWlLk6GJQsqaUBKTNV-1" vertex="1">
          <mxGeometry x="9189" y="3372" width="50" height="30" as="geometry" />
        </mxCell>
        <mxCell id="ap272Ouc-3efmhPf3Gaz-115" style="edgeStyle=none;curved=1;rounded=0;orthogonalLoop=1;jettySize=auto;html=1;entryX=0.666;entryY=-0.056;entryDx=0;entryDy=0;entryPerimeter=0;fontSize=12;startSize=8;endSize=8;" parent="WIyWlLk6GJQsqaUBKTNV-1" source="ap272Ouc-3efmhPf3Gaz-111" target="ap272Ouc-3efmhPf3Gaz-106" edge="1">
          <mxGeometry relative="1" as="geometry">
            <Array as="points">
              <mxPoint x="9107" y="3330" />
            </Array>
          </mxGeometry>
        </mxCell>
        <mxCell id="ap272Ouc-3efmhPf3Gaz-117" style="edgeStyle=none;curved=1;rounded=0;orthogonalLoop=1;jettySize=auto;html=1;entryX=0.686;entryY=1.011;entryDx=0;entryDy=0;entryPerimeter=0;fontSize=12;startSize=8;endSize=8;exitX=-0.028;exitY=0.431;exitDx=0;exitDy=0;exitPerimeter=0;" parent="WIyWlLk6GJQsqaUBKTNV-1" source="ap272Ouc-3efmhPf3Gaz-112" target="ap272Ouc-3efmhPf3Gaz-106" edge="1">
          <mxGeometry relative="1" as="geometry">
            <Array as="points">
              <mxPoint x="9110" y="3450" />
            </Array>
          </mxGeometry>
        </mxCell>
        <mxCell id="ap272Ouc-3efmhPf3Gaz-118" value="10CO" style="rounded=1;whiteSpace=wrap;html=1;absoluteArcSize=1;arcSize=14;strokeWidth=2;" parent="WIyWlLk6GJQsqaUBKTNV-1" vertex="1">
          <mxGeometry x="9017" y="3300" width="50" height="30" as="geometry" />
        </mxCell>
        <mxCell id="ap272Ouc-3efmhPf3Gaz-121" value="CaSiO3" style="rounded=1;whiteSpace=wrap;html=1;absoluteArcSize=1;arcSize=14;strokeWidth=2;" parent="WIyWlLk6GJQsqaUBKTNV-1" vertex="1">
          <mxGeometry x="8959" y="3430" width="60" height="30" as="geometry" />
        </mxCell>
        <mxCell id="ap272Ouc-3efmhPf3Gaz-122" style="edgeStyle=none;curved=1;rounded=0;orthogonalLoop=1;jettySize=auto;html=1;entryX=1;entryY=0.5;entryDx=0;entryDy=0;fontSize=12;startSize=8;endSize=8;" parent="WIyWlLk6GJQsqaUBKTNV-1" source="ap272Ouc-3efmhPf3Gaz-106" target="ap272Ouc-3efmhPf3Gaz-121" edge="1">
          <mxGeometry relative="1" as="geometry">
            <Array as="points">
              <mxPoint x="9080" y="3450" />
            </Array>
          </mxGeometry>
        </mxCell>
        <mxCell id="shh0_uf6ujN3PoYWPJ3K-0" value="Cl2" style="rounded=1;whiteSpace=wrap;html=1;absoluteArcSize=1;arcSize=14;strokeWidth=2;fillColor=#6d8764;strokeColor=#3A5431;fontColor=#ffffff;" parent="WIyWlLk6GJQsqaUBKTNV-1" vertex="1">
          <mxGeometry x="7746" y="2135.6099999999997" width="40" height="30" as="geometry" />
        </mxCell>
        <mxCell id="shh0_uf6ujN3PoYWPJ3K-2" value="" style="edgeStyle=none;curved=1;rounded=0;orthogonalLoop=1;jettySize=auto;html=1;fontSize=12;startSize=8;endSize=8;" parent="WIyWlLk6GJQsqaUBKTNV-1" source="shh0_uf6ujN3PoYWPJ3K-1" target="shh0_uf6ujN3PoYWPJ3K-0" edge="1">
          <mxGeometry relative="1" as="geometry" />
        </mxCell>
        <mxCell id="shh0_uf6ujN3PoYWPJ3K-1" value="Stainless Steel Tank Electrolysis" style="rounded=1;whiteSpace=wrap;html=1;absoluteArcSize=1;arcSize=14;strokeWidth=2;" parent="WIyWlLk6GJQsqaUBKTNV-1" vertex="1">
          <mxGeometry x="7817" y="2130.6099999999997" width="189" height="40" as="geometry" />
        </mxCell>
        <mxCell id="shh0_uf6ujN3PoYWPJ3K-5" value="" style="strokeWidth=2;html=1;shape=mxgraph.flowchart.annotation_2;align=left;labelPosition=right;pointerEvents=1;" parent="WIyWlLk6GJQsqaUBKTNV-1" vertex="1">
          <mxGeometry x="8006" y="2121.3599999999997" width="50" height="58.75" as="geometry" />
        </mxCell>
        <mxCell id="shh0_uf6ujN3PoYWPJ3K-6" value="H2O" style="rounded=1;whiteSpace=wrap;html=1;absoluteArcSize=1;arcSize=14;strokeWidth=2;fillColor=#60a917;fontColor=#ffffff;strokeColor=#2D7600;" parent="WIyWlLk6GJQsqaUBKTNV-1" vertex="1">
          <mxGeometry x="8056" y="2106.3599999999997" width="50" height="30" as="geometry" />
        </mxCell>
        <mxCell id="shh0_uf6ujN3PoYWPJ3K-7" value="NaCl" style="rounded=1;whiteSpace=wrap;html=1;absoluteArcSize=1;arcSize=14;strokeWidth=2;fillColor=#60a917;fontColor=#ffffff;strokeColor=#2D7600;" parent="WIyWlLk6GJQsqaUBKTNV-1" vertex="1">
          <mxGeometry x="8055" y="2165.6099999999997" width="61" height="30" as="geometry" />
        </mxCell>
        <mxCell id="shh0_uf6ujN3PoYWPJ3K-8" value="2H2C2O4" style="rounded=1;whiteSpace=wrap;html=1;absoluteArcSize=1;arcSize=14;strokeWidth=2;fillColor=#647687;fontColor=#ffffff;strokeColor=#314354;" parent="WIyWlLk6GJQsqaUBKTNV-1" vertex="1">
          <mxGeometry x="7736" y="2383.5499999999997" width="80" height="33.37" as="geometry" />
        </mxCell>
        <mxCell id="shh0_uf6ujN3PoYWPJ3K-10" value="" style="edgeStyle=none;curved=1;rounded=0;orthogonalLoop=1;jettySize=auto;html=1;fontSize=12;startSize=8;endSize=8;" parent="WIyWlLk6GJQsqaUBKTNV-1" source="shh0_uf6ujN3PoYWPJ3K-9" target="shh0_uf6ujN3PoYWPJ3K-8" edge="1">
          <mxGeometry relative="1" as="geometry" />
        </mxCell>
        <mxCell id="shh0_uf6ujN3PoYWPJ3K-9" value="Stainless Steel Tank V2O5 Catalyst" style="rounded=1;whiteSpace=wrap;html=1;absoluteArcSize=1;arcSize=14;strokeWidth=2;" parent="WIyWlLk6GJQsqaUBKTNV-1" vertex="1">
          <mxGeometry x="7846" y="2380.24" width="134.5" height="40" as="geometry" />
        </mxCell>
        <mxCell id="T2P5xVpa0okPMdfS9Mix-0" value="" style="strokeWidth=2;html=1;shape=mxgraph.flowchart.annotation_2;align=left;labelPosition=right;pointerEvents=1;" vertex="1" parent="WIyWlLk6GJQsqaUBKTNV-1">
          <mxGeometry x="7980.5" y="2370.62" width="50" height="58.75" as="geometry" />
        </mxCell>
        <mxCell id="T2P5xVpa0okPMdfS9Mix-1" value="HNO3" style="rounded=1;whiteSpace=wrap;html=1;absoluteArcSize=1;arcSize=14;strokeWidth=2;fillColor=#6a00ff;fontColor=#ffffff;strokeColor=#3700CC;" vertex="1" parent="WIyWlLk6GJQsqaUBKTNV-1">
          <mxGeometry x="8030.5" y="2355.62" width="55.5" height="30" as="geometry" />
        </mxCell>
        <mxCell id="T2P5xVpa0okPMdfS9Mix-2" value="Sugar" style="rounded=1;whiteSpace=wrap;html=1;absoluteArcSize=1;arcSize=14;strokeWidth=2;fillColor=#60a917;fontColor=#ffffff;strokeColor=#2D7600;" vertex="1" parent="WIyWlLk6GJQsqaUBKTNV-1">
          <mxGeometry x="8029.5" y="2414.87" width="61" height="30" as="geometry" />
        </mxCell>
        <mxCell id="T2P5xVpa0okPMdfS9Mix-3" value="2HNO3" style="rounded=1;whiteSpace=wrap;html=1;absoluteArcSize=1;arcSize=14;strokeWidth=2;fillColor=#6a00ff;strokeColor=#3700CC;fontColor=#ffffff;" vertex="1" parent="WIyWlLk6GJQsqaUBKTNV-1">
          <mxGeometry x="7747" y="2241.99" width="60" height="30" as="geometry" />
        </mxCell>
        <mxCell id="T2P5xVpa0okPMdfS9Mix-4" value="" style="edgeStyle=none;curved=1;rounded=0;orthogonalLoop=1;jettySize=auto;html=1;fontSize=12;startSize=8;endSize=8;" edge="1" parent="WIyWlLk6GJQsqaUBKTNV-1" source="T2P5xVpa0okPMdfS9Mix-5" target="T2P5xVpa0okPMdfS9Mix-3">
          <mxGeometry relative="1" as="geometry" />
        </mxCell>
        <mxCell id="T2P5xVpa0okPMdfS9Mix-5" value="Stainless Steel Tank&amp;nbsp;" style="rounded=1;whiteSpace=wrap;html=1;absoluteArcSize=1;arcSize=14;strokeWidth=2;" vertex="1" parent="WIyWlLk6GJQsqaUBKTNV-1">
          <mxGeometry x="7838" y="2236.99" width="139" height="40" as="geometry" />
        </mxCell>
        <mxCell id="T2P5xVpa0okPMdfS9Mix-6" value="" style="strokeWidth=2;html=1;shape=mxgraph.flowchart.annotation_2;align=left;labelPosition=right;pointerEvents=1;" vertex="1" parent="WIyWlLk6GJQsqaUBKTNV-1">
          <mxGeometry x="7976" y="2227.37" width="50" height="58.75" as="geometry" />
        </mxCell>
        <mxCell id="T2P5xVpa0okPMdfS9Mix-7" value="2NH3" style="rounded=1;whiteSpace=wrap;html=1;absoluteArcSize=1;arcSize=14;strokeWidth=2;fillColor=#76608a;fontColor=#ffffff;strokeColor=#432D57;" vertex="1" parent="WIyWlLk6GJQsqaUBKTNV-1">
          <mxGeometry x="8026" y="2212.37" width="50" height="30" as="geometry" />
        </mxCell>
        <mxCell id="T2P5xVpa0okPMdfS9Mix-8" value="4O2" style="rounded=1;whiteSpace=wrap;html=1;absoluteArcSize=1;arcSize=14;strokeWidth=2;" vertex="1" parent="WIyWlLk6GJQsqaUBKTNV-1">
          <mxGeometry x="8025" y="2271.62" width="61" height="30" as="geometry" />
        </mxCell>
        <mxCell id="T2P5xVpa0okPMdfS9Mix-13" value="" style="edgeStyle=none;curved=1;rounded=0;orthogonalLoop=1;jettySize=auto;html=1;fontSize=12;startSize=8;endSize=8;" edge="1" parent="WIyWlLk6GJQsqaUBKTNV-1" source="T2P5xVpa0okPMdfS9Mix-11" target="T2P5xVpa0okPMdfS9Mix-12">
          <mxGeometry relative="1" as="geometry" />
        </mxCell>
        <mxCell id="T2P5xVpa0okPMdfS9Mix-11" value="Condensation Tank" style="rounded=1;whiteSpace=wrap;html=1;absoluteArcSize=1;arcSize=14;strokeWidth=2;" vertex="1" parent="WIyWlLk6GJQsqaUBKTNV-1">
          <mxGeometry x="8229.56" y="2098.62" width="129.13" height="40" as="geometry" />
        </mxCell>
        <mxCell id="T2P5xVpa0okPMdfS9Mix-12" value="NH3" style="rounded=1;whiteSpace=wrap;html=1;absoluteArcSize=1;arcSize=14;strokeWidth=2;fillColor=#76608a;fontColor=#ffffff;strokeColor=#432D57;" vertex="1" parent="WIyWlLk6GJQsqaUBKTNV-1">
          <mxGeometry x="8145.56" y="2103.62" width="50" height="30" as="geometry" />
        </mxCell>
        <mxCell id="T2P5xVpa0okPMdfS9Mix-15" value="" style="edgeStyle=none;curved=1;rounded=0;orthogonalLoop=1;jettySize=auto;html=1;fontSize=12;startSize=8;endSize=8;" edge="1" parent="WIyWlLk6GJQsqaUBKTNV-1" source="T2P5xVpa0okPMdfS9Mix-14" target="T2P5xVpa0okPMdfS9Mix-11">
          <mxGeometry relative="1" as="geometry" />
        </mxCell>
        <mxCell id="T2P5xVpa0okPMdfS9Mix-14" value="Stainless Steel Tank FeO Catalyst" style="rounded=1;whiteSpace=wrap;html=1;absoluteArcSize=1;arcSize=14;strokeWidth=2;" vertex="1" parent="WIyWlLk6GJQsqaUBKTNV-1">
          <mxGeometry x="8391.44" y="2098.62" width="134.5" height="40" as="geometry" />
        </mxCell>
        <mxCell id="T2P5xVpa0okPMdfS9Mix-19" value="" style="edgeStyle=none;curved=1;rounded=0;orthogonalLoop=1;jettySize=auto;html=1;fontSize=12;startSize=8;endSize=8;" edge="1" parent="WIyWlLk6GJQsqaUBKTNV-1" source="T2P5xVpa0okPMdfS9Mix-17" target="T2P5xVpa0okPMdfS9Mix-14">
          <mxGeometry relative="1" as="geometry" />
        </mxCell>
        <mxCell id="T2P5xVpa0okPMdfS9Mix-17" value="High Pressure Compressor" style="rounded=1;whiteSpace=wrap;html=1;absoluteArcSize=1;arcSize=14;strokeWidth=2;" vertex="1" parent="WIyWlLk6GJQsqaUBKTNV-1">
          <mxGeometry x="8558.69" y="2098.37" width="170" height="40" as="geometry" />
        </mxCell>
        <mxCell id="T2P5xVpa0okPMdfS9Mix-18" value="" style="strokeWidth=2;html=1;shape=mxgraph.flowchart.annotation_2;align=left;labelPosition=right;pointerEvents=1;" vertex="1" parent="WIyWlLk6GJQsqaUBKTNV-1">
          <mxGeometry x="8728.69" y="2091.12" width="50" height="55" as="geometry" />
        </mxCell>
        <mxCell id="T2P5xVpa0okPMdfS9Mix-20" value="N2" style="rounded=1;whiteSpace=wrap;html=1;absoluteArcSize=1;arcSize=14;strokeWidth=2;" vertex="1" parent="WIyWlLk6GJQsqaUBKTNV-1">
          <mxGeometry x="8778.69" y="2132.37" width="36" height="30" as="geometry" />
        </mxCell>
        <mxCell id="T2P5xVpa0okPMdfS9Mix-21" value="3H2" style="rounded=1;whiteSpace=wrap;html=1;absoluteArcSize=1;arcSize=14;strokeWidth=2;" vertex="1" parent="WIyWlLk6GJQsqaUBKTNV-1">
          <mxGeometry x="8778.69" y="2076.3599999999997" width="50" height="30" as="geometry" />
        </mxCell>
        <mxCell id="T2P5xVpa0okPMdfS9Mix-42" style="edgeStyle=none;curved=1;rounded=0;orthogonalLoop=1;jettySize=auto;html=1;entryX=0.5;entryY=0;entryDx=0;entryDy=0;fontSize=12;startSize=8;endSize=8;" edge="1" parent="WIyWlLk6GJQsqaUBKTNV-1" source="T2P5xVpa0okPMdfS9Mix-22" target="T2P5xVpa0okPMdfS9Mix-14">
          <mxGeometry relative="1" as="geometry">
            <Array as="points">
              <mxPoint x="8424.69" y="2067.37" />
              <mxPoint x="8458.69" y="2077.37" />
            </Array>
          </mxGeometry>
        </mxCell>
        <mxCell id="T2P5xVpa0okPMdfS9Mix-22" value="FeO" style="rounded=1;whiteSpace=wrap;html=1;absoluteArcSize=1;arcSize=14;strokeWidth=2;" vertex="1" parent="WIyWlLk6GJQsqaUBKTNV-1">
          <mxGeometry x="8404.94" y="2012.37" width="50" height="30" as="geometry" />
        </mxCell>
        <mxCell id="T2P5xVpa0okPMdfS9Mix-24" value="" style="edgeStyle=none;curved=1;rounded=0;orthogonalLoop=1;jettySize=auto;html=1;fontSize=12;startSize=8;endSize=8;" edge="1" parent="WIyWlLk6GJQsqaUBKTNV-1" source="T2P5xVpa0okPMdfS9Mix-23" target="T2P5xVpa0okPMdfS9Mix-22">
          <mxGeometry relative="1" as="geometry" />
        </mxCell>
        <mxCell id="T2P5xVpa0okPMdfS9Mix-29" style="edgeStyle=none;curved=1;rounded=0;orthogonalLoop=1;jettySize=auto;html=1;entryX=0;entryY=0.5;entryDx=0;entryDy=0;fontSize=12;startSize=8;endSize=8;" edge="1" parent="WIyWlLk6GJQsqaUBKTNV-1" source="T2P5xVpa0okPMdfS9Mix-23" target="T2P5xVpa0okPMdfS9Mix-26">
          <mxGeometry relative="1" as="geometry">
            <Array as="points">
              <mxPoint x="8554.94" y="1970" />
            </Array>
          </mxGeometry>
        </mxCell>
        <mxCell id="T2P5xVpa0okPMdfS9Mix-23" value="&amp;nbsp;Vacuum tank 770C" style="rounded=1;whiteSpace=wrap;html=1;absoluteArcSize=1;arcSize=14;strokeWidth=2;" vertex="1" parent="WIyWlLk6GJQsqaUBKTNV-1">
          <mxGeometry x="8485.94" y="2007.37" width="139" height="40" as="geometry" />
        </mxCell>
        <mxCell id="T2P5xVpa0okPMdfS9Mix-25" value="CO2" style="rounded=1;whiteSpace=wrap;html=1;absoluteArcSize=1;arcSize=14;strokeWidth=2;" vertex="1" parent="WIyWlLk6GJQsqaUBKTNV-1">
          <mxGeometry x="8475.94" y="1957.37" width="50" height="30" as="geometry" />
        </mxCell>
        <mxCell id="T2P5xVpa0okPMdfS9Mix-26" value="CO" style="rounded=1;whiteSpace=wrap;html=1;absoluteArcSize=1;arcSize=14;strokeWidth=2;" vertex="1" parent="WIyWlLk6GJQsqaUBKTNV-1">
          <mxGeometry x="8594.94" y="1957.37" width="50" height="30" as="geometry" />
        </mxCell>
        <mxCell id="T2P5xVpa0okPMdfS9Mix-28" style="edgeStyle=none;curved=1;rounded=0;orthogonalLoop=1;jettySize=auto;html=1;entryX=1;entryY=0.5;entryDx=0;entryDy=0;fontSize=12;startSize=8;endSize=8;" edge="1" parent="WIyWlLk6GJQsqaUBKTNV-1" source="T2P5xVpa0okPMdfS9Mix-23" target="T2P5xVpa0okPMdfS9Mix-25">
          <mxGeometry relative="1" as="geometry">
            <Array as="points">
              <mxPoint x="8554.94" y="1970" />
            </Array>
          </mxGeometry>
        </mxCell>
        <mxCell id="T2P5xVpa0okPMdfS9Mix-32" value="" style="edgeStyle=none;curved=1;rounded=0;orthogonalLoop=1;jettySize=auto;html=1;fontSize=12;startSize=8;endSize=8;" edge="1" parent="WIyWlLk6GJQsqaUBKTNV-1" source="T2P5xVpa0okPMdfS9Mix-31" target="T2P5xVpa0okPMdfS9Mix-23">
          <mxGeometry relative="1" as="geometry" />
        </mxCell>
        <mxCell id="T2P5xVpa0okPMdfS9Mix-31" value="FeC2O4" style="rounded=1;whiteSpace=wrap;html=1;absoluteArcSize=1;arcSize=14;strokeWidth=2;" vertex="1" parent="WIyWlLk6GJQsqaUBKTNV-1">
          <mxGeometry x="8655.94" y="2012.37" width="69" height="30" as="geometry" />
        </mxCell>
        <mxCell id="T2P5xVpa0okPMdfS9Mix-33" value="H2SO4" style="rounded=1;whiteSpace=wrap;html=1;absoluteArcSize=1;arcSize=14;strokeWidth=2;fillColor=#e51400;fontColor=#ffffff;strokeColor=#B20000;" vertex="1" parent="WIyWlLk6GJQsqaUBKTNV-1">
          <mxGeometry x="8933.44" y="1962.37" width="69" height="30" as="geometry" />
        </mxCell>
        <mxCell id="T2P5xVpa0okPMdfS9Mix-39" value="" style="edgeStyle=none;curved=1;rounded=0;orthogonalLoop=1;jettySize=auto;html=1;fontSize=12;startSize=8;endSize=8;" edge="1" parent="WIyWlLk6GJQsqaUBKTNV-1" source="T2P5xVpa0okPMdfS9Mix-34" target="T2P5xVpa0okPMdfS9Mix-37">
          <mxGeometry relative="1" as="geometry" />
        </mxCell>
        <mxCell id="T2P5xVpa0okPMdfS9Mix-34" value="Iron" style="rounded=1;whiteSpace=wrap;html=1;absoluteArcSize=1;arcSize=14;strokeWidth=2;fillColor=#60a917;fontColor=#ffffff;strokeColor=#2D7600;" vertex="1" parent="WIyWlLk6GJQsqaUBKTNV-1">
          <mxGeometry x="8933.44" y="2013.2999999999997" width="69" height="30" as="geometry" />
        </mxCell>
        <mxCell id="T2P5xVpa0okPMdfS9Mix-35" value="H2C2O4" style="rounded=1;whiteSpace=wrap;html=1;absoluteArcSize=1;arcSize=14;strokeWidth=2;fillColor=#647687;fontColor=#ffffff;strokeColor=#314354;" vertex="1" parent="WIyWlLk6GJQsqaUBKTNV-1">
          <mxGeometry x="8933.44" y="2064" width="69" height="30" as="geometry" />
        </mxCell>
        <mxCell id="T2P5xVpa0okPMdfS9Mix-38" value="" style="edgeStyle=none;curved=1;rounded=0;orthogonalLoop=1;jettySize=auto;html=1;fontSize=12;startSize=8;endSize=8;" edge="1" parent="WIyWlLk6GJQsqaUBKTNV-1" source="T2P5xVpa0okPMdfS9Mix-37" target="T2P5xVpa0okPMdfS9Mix-31">
          <mxGeometry relative="1" as="geometry" />
        </mxCell>
        <mxCell id="T2P5xVpa0okPMdfS9Mix-37" value="Stainless Steel Tank" style="rounded=1;whiteSpace=wrap;html=1;absoluteArcSize=1;arcSize=14;strokeWidth=2;" vertex="1" parent="WIyWlLk6GJQsqaUBKTNV-1">
          <mxGeometry x="8756.94" y="2007.37" width="150" height="40" as="geometry" />
        </mxCell>
        <mxCell id="T2P5xVpa0okPMdfS9Mix-40" style="edgeStyle=none;curved=1;rounded=0;orthogonalLoop=1;jettySize=auto;html=1;entryX=0.628;entryY=-0.004;entryDx=0;entryDy=0;entryPerimeter=0;fontSize=12;startSize=8;endSize=8;" edge="1" parent="WIyWlLk6GJQsqaUBKTNV-1" source="T2P5xVpa0okPMdfS9Mix-33" target="T2P5xVpa0okPMdfS9Mix-37">
          <mxGeometry relative="1" as="geometry">
            <Array as="points">
              <mxPoint x="8850.94" y="1975" />
            </Array>
          </mxGeometry>
        </mxCell>
        <mxCell id="T2P5xVpa0okPMdfS9Mix-41" style="edgeStyle=none;curved=1;rounded=0;orthogonalLoop=1;jettySize=auto;html=1;entryX=0.581;entryY=0.985;entryDx=0;entryDy=0;entryPerimeter=0;fontSize=12;startSize=8;endSize=8;" edge="1" parent="WIyWlLk6GJQsqaUBKTNV-1" source="T2P5xVpa0okPMdfS9Mix-35" target="T2P5xVpa0okPMdfS9Mix-37">
          <mxGeometry relative="1" as="geometry">
            <Array as="points">
              <mxPoint x="8843.94" y="2085" />
            </Array>
          </mxGeometry>
        </mxCell>
        <mxCell id="T2P5xVpa0okPMdfS9Mix-43" value="SO2" style="rounded=1;whiteSpace=wrap;html=1;absoluteArcSize=1;arcSize=14;strokeWidth=2;fillColor=#0050ef;strokeColor=#001DBC;fontColor=#ffffff;" vertex="1" parent="WIyWlLk6GJQsqaUBKTNV-1">
          <mxGeometry x="8139.5" y="2424.3100000000004" width="49" height="30" as="geometry" />
        </mxCell>
        <mxCell id="T2P5xVpa0okPMdfS9Mix-44" value="" style="edgeStyle=none;curved=1;rounded=0;orthogonalLoop=1;jettySize=auto;html=1;fontSize=12;startSize=8;endSize=8;" edge="1" parent="WIyWlLk6GJQsqaUBKTNV-1" source="T2P5xVpa0okPMdfS9Mix-45" target="T2P5xVpa0okPMdfS9Mix-43">
          <mxGeometry relative="1" as="geometry" />
        </mxCell>
        <mxCell id="T2P5xVpa0okPMdfS9Mix-45" value="Stainless Steel Tank&amp;nbsp;" style="rounded=1;whiteSpace=wrap;html=1;absoluteArcSize=1;arcSize=14;strokeWidth=2;" vertex="1" parent="WIyWlLk6GJQsqaUBKTNV-1">
          <mxGeometry x="8219.5" y="2419.3100000000004" width="140" height="40" as="geometry" />
        </mxCell>
        <mxCell id="T2P5xVpa0okPMdfS9Mix-46" value="" style="strokeWidth=2;html=1;shape=mxgraph.flowchart.annotation_2;align=left;labelPosition=right;pointerEvents=1;" vertex="1" parent="WIyWlLk6GJQsqaUBKTNV-1">
          <mxGeometry x="8358.5" y="2411.75" width="50" height="58.75" as="geometry" />
        </mxCell>
        <mxCell id="T2P5xVpa0okPMdfS9Mix-47" value="S (g)" style="rounded=1;whiteSpace=wrap;html=1;absoluteArcSize=1;arcSize=14;strokeWidth=2;fillColor=#60a917;fontColor=#ffffff;strokeColor=#2D7600;" vertex="1" parent="WIyWlLk6GJQsqaUBKTNV-1">
          <mxGeometry x="8408.5" y="2396.75" width="50" height="30" as="geometry" />
        </mxCell>
        <mxCell id="T2P5xVpa0okPMdfS9Mix-48" value="O2" style="rounded=1;whiteSpace=wrap;html=1;absoluteArcSize=1;arcSize=14;strokeWidth=2;" vertex="1" parent="WIyWlLk6GJQsqaUBKTNV-1">
          <mxGeometry x="8407.5" y="2456" width="42" height="30" as="geometry" />
        </mxCell>
        <mxCell id="T2P5xVpa0okPMdfS9Mix-49" value="SO3" style="rounded=1;whiteSpace=wrap;html=1;absoluteArcSize=1;arcSize=14;strokeWidth=2;fillColor=#d80073;fontColor=#ffffff;strokeColor=#A50040;" vertex="1" parent="WIyWlLk6GJQsqaUBKTNV-1">
          <mxGeometry x="8139" y="2316.1800000000003" width="51.88" height="33.37" as="geometry" />
        </mxCell>
        <mxCell id="T2P5xVpa0okPMdfS9Mix-50" value="" style="edgeStyle=none;curved=1;rounded=0;orthogonalLoop=1;jettySize=auto;html=1;fontSize=12;startSize=8;endSize=8;" edge="1" parent="WIyWlLk6GJQsqaUBKTNV-1" source="T2P5xVpa0okPMdfS9Mix-51" target="T2P5xVpa0okPMdfS9Mix-49">
          <mxGeometry relative="1" as="geometry" />
        </mxCell>
        <mxCell id="T2P5xVpa0okPMdfS9Mix-51" value="Stainless Steel Tank V2O5 Catalyst" style="rounded=1;whiteSpace=wrap;html=1;absoluteArcSize=1;arcSize=14;strokeWidth=2;" vertex="1" parent="WIyWlLk6GJQsqaUBKTNV-1">
          <mxGeometry x="8220.88" y="2312.87" width="134.5" height="40" as="geometry" />
        </mxCell>
        <mxCell id="T2P5xVpa0okPMdfS9Mix-52" value="" style="strokeWidth=2;html=1;shape=mxgraph.flowchart.annotation_2;align=left;labelPosition=right;pointerEvents=1;" vertex="1" parent="WIyWlLk6GJQsqaUBKTNV-1">
          <mxGeometry x="8355.38" y="2303.25" width="50" height="58.75" as="geometry" />
        </mxCell>
        <mxCell id="T2P5xVpa0okPMdfS9Mix-54" value="SO2" style="rounded=1;whiteSpace=wrap;html=1;absoluteArcSize=1;arcSize=14;strokeWidth=2;fillColor=#0050ef;fontColor=#ffffff;strokeColor=#001DBC;" vertex="1" parent="WIyWlLk6GJQsqaUBKTNV-1">
          <mxGeometry x="8404.38" y="2347.5" width="45.62" height="30" as="geometry" />
        </mxCell>
        <mxCell id="T2P5xVpa0okPMdfS9Mix-55" value="O2" style="rounded=1;whiteSpace=wrap;html=1;absoluteArcSize=1;arcSize=14;strokeWidth=2;" vertex="1" parent="WIyWlLk6GJQsqaUBKTNV-1">
          <mxGeometry x="8406.5" y="2289" width="33.5" height="30" as="geometry" />
        </mxCell>
        <mxCell id="T2P5xVpa0okPMdfS9Mix-58" value="" style="edgeStyle=none;curved=1;rounded=0;orthogonalLoop=1;jettySize=auto;html=1;fontSize=12;startSize=8;endSize=8;" edge="1" parent="WIyWlLk6GJQsqaUBKTNV-1" source="T2P5xVpa0okPMdfS9Mix-56" target="T2P5xVpa0okPMdfS9Mix-57">
          <mxGeometry relative="1" as="geometry" />
        </mxCell>
        <mxCell id="T2P5xVpa0okPMdfS9Mix-56" value="Condensation Tank" style="rounded=1;whiteSpace=wrap;html=1;absoluteArcSize=1;arcSize=14;strokeWidth=2;" vertex="1" parent="WIyWlLk6GJQsqaUBKTNV-1">
          <mxGeometry x="8234" y="2204.76" width="130" height="40" as="geometry" />
        </mxCell>
        <mxCell id="T2P5xVpa0okPMdfS9Mix-57" value="H2SO4" style="rounded=1;whiteSpace=wrap;html=1;absoluteArcSize=1;arcSize=14;strokeWidth=2;fillColor=#e51400;fontColor=#ffffff;strokeColor=#B20000;" vertex="1" parent="WIyWlLk6GJQsqaUBKTNV-1">
          <mxGeometry x="8135.5" y="2209.76" width="73" height="30" as="geometry" />
        </mxCell>
        <mxCell id="T2P5xVpa0okPMdfS9Mix-59" value="" style="strokeWidth=2;html=1;shape=mxgraph.flowchart.annotation_2;align=left;labelPosition=right;pointerEvents=1;" vertex="1" parent="WIyWlLk6GJQsqaUBKTNV-1">
          <mxGeometry x="8363.87" y="2194.76" width="50" height="58.75" as="geometry" />
        </mxCell>
        <mxCell id="T2P5xVpa0okPMdfS9Mix-61" value="H2O (g)" style="rounded=1;whiteSpace=wrap;html=1;absoluteArcSize=1;arcSize=14;strokeWidth=2;" vertex="1" parent="WIyWlLk6GJQsqaUBKTNV-1">
          <mxGeometry x="8414.990000000002" y="2180.51" width="59.88" height="30" as="geometry" />
        </mxCell>
        <mxCell id="T2P5xVpa0okPMdfS9Mix-62" value="SO3" style="rounded=1;whiteSpace=wrap;html=1;absoluteArcSize=1;arcSize=14;strokeWidth=2;fillColor=#d80073;fontColor=#ffffff;strokeColor=#A50040;" vertex="1" parent="WIyWlLk6GJQsqaUBKTNV-1">
          <mxGeometry x="8414.990000000002" y="2238.75" width="51.88" height="30.25" as="geometry" />
        </mxCell>
        <mxCell id="T2P5xVpa0okPMdfS9Mix-63" value="2HF" style="rounded=1;whiteSpace=wrap;html=1;absoluteArcSize=1;arcSize=14;strokeWidth=2;fillColor=#e3c800;strokeColor=#B09500;fontColor=#000000;" vertex="1" parent="WIyWlLk6GJQsqaUBKTNV-1">
          <mxGeometry x="8499" y="2229.94" width="44.94" height="30" as="geometry" />
        </mxCell>
        <mxCell id="T2P5xVpa0okPMdfS9Mix-64" value="" style="edgeStyle=none;curved=1;rounded=0;orthogonalLoop=1;jettySize=auto;html=1;fontSize=12;startSize=8;endSize=8;" edge="1" parent="WIyWlLk6GJQsqaUBKTNV-1" source="T2P5xVpa0okPMdfS9Mix-65" target="T2P5xVpa0okPMdfS9Mix-63">
          <mxGeometry relative="1" as="geometry" />
        </mxCell>
        <mxCell id="T2P5xVpa0okPMdfS9Mix-65" value="Stainless Steel Tank&amp;nbsp;" style="rounded=1;whiteSpace=wrap;html=1;absoluteArcSize=1;arcSize=14;strokeWidth=2;" vertex="1" parent="WIyWlLk6GJQsqaUBKTNV-1">
          <mxGeometry x="8574.94" y="2224.9400000000005" width="140" height="40" as="geometry" />
        </mxCell>
        <mxCell id="T2P5xVpa0okPMdfS9Mix-66" value="" style="strokeWidth=2;html=1;shape=mxgraph.flowchart.annotation_2;align=left;labelPosition=right;pointerEvents=1;" vertex="1" parent="WIyWlLk6GJQsqaUBKTNV-1">
          <mxGeometry x="8713.94" y="2217.38" width="50" height="58.75" as="geometry" />
        </mxCell>
        <mxCell id="T2P5xVpa0okPMdfS9Mix-67" value="CaF2&amp;nbsp;" style="rounded=1;whiteSpace=wrap;html=1;absoluteArcSize=1;arcSize=14;strokeWidth=2;fillColor=#60a917;fontColor=#ffffff;strokeColor=#2D7600;" vertex="1" parent="WIyWlLk6GJQsqaUBKTNV-1">
          <mxGeometry x="8763.94" y="2202.38" width="56.06" height="30" as="geometry" />
        </mxCell>
        <mxCell id="T2P5xVpa0okPMdfS9Mix-69" value="H2SO4" style="rounded=1;whiteSpace=wrap;html=1;absoluteArcSize=1;arcSize=14;strokeWidth=2;fillColor=#e51400;fontColor=#ffffff;strokeColor=#B20000;" vertex="1" parent="WIyWlLk6GJQsqaUBKTNV-1">
          <mxGeometry x="8763.94" y="2260" width="69" height="30" as="geometry" />
        </mxCell>
        <mxCell id="T2P5xVpa0okPMdfS9Mix-70" value="K2CO3" style="rounded=1;whiteSpace=wrap;html=1;absoluteArcSize=1;arcSize=14;strokeWidth=2;fillColor=#1ba1e2;strokeColor=#006EAF;fontColor=#ffffff;" vertex="1" parent="WIyWlLk6GJQsqaUBKTNV-1">
          <mxGeometry x="8497.33" y="2324" width="64.44" height="30" as="geometry" />
        </mxCell>
        <mxCell id="T2P5xVpa0okPMdfS9Mix-71" value="" style="edgeStyle=none;curved=1;rounded=0;orthogonalLoop=1;jettySize=auto;html=1;fontSize=12;startSize=8;endSize=8;" edge="1" parent="WIyWlLk6GJQsqaUBKTNV-1" source="T2P5xVpa0okPMdfS9Mix-72" target="T2P5xVpa0okPMdfS9Mix-70">
          <mxGeometry relative="1" as="geometry" />
        </mxCell>
        <mxCell id="T2P5xVpa0okPMdfS9Mix-72" value="Aqueous purification" style="rounded=1;whiteSpace=wrap;html=1;absoluteArcSize=1;arcSize=14;strokeWidth=2;" vertex="1" parent="WIyWlLk6GJQsqaUBKTNV-1">
          <mxGeometry x="8592.77" y="2319.0000000000005" width="140" height="40" as="geometry" />
        </mxCell>
        <mxCell id="T2P5xVpa0okPMdfS9Mix-76" value="" style="edgeStyle=none;curved=1;rounded=0;orthogonalLoop=1;jettySize=auto;html=1;fontSize=12;startSize=8;endSize=8;" edge="1" parent="WIyWlLk6GJQsqaUBKTNV-1" source="T2P5xVpa0okPMdfS9Mix-74" target="T2P5xVpa0okPMdfS9Mix-72">
          <mxGeometry relative="1" as="geometry" />
        </mxCell>
        <mxCell id="T2P5xVpa0okPMdfS9Mix-74" value="Charcoal" style="rounded=1;whiteSpace=wrap;html=1;absoluteArcSize=1;arcSize=14;strokeWidth=2;fillColor=#60a917;fontColor=#ffffff;strokeColor=#2D7600;" vertex="1" parent="WIyWlLk6GJQsqaUBKTNV-1">
          <mxGeometry x="8758.6" y="2324.06" width="74.34" height="30" as="geometry" />
        </mxCell>
        <mxCell id="T2P5xVpa0okPMdfS9Mix-96" value="" style="edgeStyle=none;curved=1;rounded=0;orthogonalLoop=1;jettySize=auto;html=1;fontSize=12;startSize=8;endSize=8;" edge="1" parent="WIyWlLk6GJQsqaUBKTNV-1" source="T2P5xVpa0okPMdfS9Mix-77" target="T2P5xVpa0okPMdfS9Mix-92">
          <mxGeometry relative="1" as="geometry" />
        </mxCell>
        <mxCell id="T2P5xVpa0okPMdfS9Mix-77" value="Stainless Steel Tank 400C" style="rounded=1;whiteSpace=wrap;html=1;absoluteArcSize=1;arcSize=14;strokeWidth=2;" vertex="1" parent="WIyWlLk6GJQsqaUBKTNV-1">
          <mxGeometry x="6541" y="2848.88" width="180" height="40" as="geometry" />
        </mxCell>
        <mxCell id="T2P5xVpa0okPMdfS9Mix-78" value="" style="strokeWidth=2;html=1;shape=mxgraph.flowchart.annotation_2;align=left;labelPosition=right;pointerEvents=1;" vertex="1" parent="WIyWlLk6GJQsqaUBKTNV-1">
          <mxGeometry x="7036" y="2837" width="50" height="63.25" as="geometry" />
        </mxCell>
        <mxCell id="T2P5xVpa0okPMdfS9Mix-79" style="edgeStyle=none;curved=1;rounded=0;orthogonalLoop=1;jettySize=auto;html=1;entryX=1;entryY=0.5;entryDx=0;entryDy=0;fontSize=12;startSize=8;endSize=8;" edge="1" parent="WIyWlLk6GJQsqaUBKTNV-1" source="T2P5xVpa0okPMdfS9Mix-80" target="T2P5xVpa0okPMdfS9Mix-84">
          <mxGeometry relative="1" as="geometry" />
        </mxCell>
        <mxCell id="T2P5xVpa0okPMdfS9Mix-80" value="Stainless Steel Tank" style="rounded=1;whiteSpace=wrap;html=1;absoluteArcSize=1;arcSize=14;strokeWidth=2;" vertex="1" parent="WIyWlLk6GJQsqaUBKTNV-1">
          <mxGeometry x="6886" y="2848.38" width="150" height="40" as="geometry" />
        </mxCell>
        <mxCell id="T2P5xVpa0okPMdfS9Mix-83" style="edgeStyle=none;curved=1;rounded=0;orthogonalLoop=1;jettySize=auto;html=1;entryX=1;entryY=0.5;entryDx=0;entryDy=0;fontSize=12;startSize=8;endSize=8;" edge="1" parent="WIyWlLk6GJQsqaUBKTNV-1" source="T2P5xVpa0okPMdfS9Mix-84" target="T2P5xVpa0okPMdfS9Mix-77">
          <mxGeometry relative="1" as="geometry" />
        </mxCell>
        <mxCell id="T2P5xVpa0okPMdfS9Mix-84" value="UO2(NO3)2" style="rounded=1;whiteSpace=wrap;html=1;absoluteArcSize=1;arcSize=14;strokeWidth=2;" vertex="1" parent="WIyWlLk6GJQsqaUBKTNV-1">
          <mxGeometry x="6751" y="2848.38" width="100" height="40" as="geometry" />
        </mxCell>
        <mxCell id="T2P5xVpa0okPMdfS9Mix-85" value="HNO3" style="rounded=1;whiteSpace=wrap;html=1;absoluteArcSize=1;arcSize=14;strokeWidth=2;fillColor=#6a00ff;fontColor=#ffffff;strokeColor=#3700CC;" vertex="1" parent="WIyWlLk6GJQsqaUBKTNV-1">
          <mxGeometry x="7086" y="2822.25" width="50" height="30" as="geometry" />
        </mxCell>
        <mxCell id="T2P5xVpa0okPMdfS9Mix-86" value="H2O" style="rounded=1;whiteSpace=wrap;html=1;absoluteArcSize=1;arcSize=14;strokeWidth=2;" vertex="1" parent="WIyWlLk6GJQsqaUBKTNV-1">
          <mxGeometry x="7295" y="2345" width="57" height="30" as="geometry" />
        </mxCell>
        <mxCell id="T2P5xVpa0okPMdfS9Mix-87" style="edgeStyle=none;curved=1;rounded=0;orthogonalLoop=1;jettySize=auto;html=1;entryX=1;entryY=0.5;entryDx=0;entryDy=0;fontSize=12;startSize=8;endSize=8;exitX=0.631;exitY=0.008;exitDx=0;exitDy=0;exitPerimeter=0;" edge="1" parent="WIyWlLk6GJQsqaUBKTNV-1" target="T2P5xVpa0okPMdfS9Mix-86">
          <mxGeometry relative="1" as="geometry">
            <mxPoint x="7398.580000000002" y="2407.32" as="sourcePoint" />
            <mxPoint x="7352" y="2359" as="targetPoint" />
            <Array as="points">
              <mxPoint x="7400" y="2359" />
            </Array>
          </mxGeometry>
        </mxCell>
        <mxCell id="T2P5xVpa0okPMdfS9Mix-97" value="" style="edgeStyle=none;curved=1;rounded=0;orthogonalLoop=1;jettySize=auto;html=1;fontSize=12;startSize=8;endSize=8;" edge="1" parent="WIyWlLk6GJQsqaUBKTNV-1" source="T2P5xVpa0okPMdfS9Mix-88" target="4DqQwGkzJeAgSaI9an-8-92">
          <mxGeometry relative="1" as="geometry" />
        </mxCell>
        <mxCell id="T2P5xVpa0okPMdfS9Mix-88" value="UO2" style="rounded=1;whiteSpace=wrap;html=1;absoluteArcSize=1;arcSize=14;strokeWidth=2;" vertex="1" parent="WIyWlLk6GJQsqaUBKTNV-1">
          <mxGeometry x="6135" y="2826.5" width="50" height="30" as="geometry" />
        </mxCell>
        <mxCell id="T2P5xVpa0okPMdfS9Mix-89" value="" style="strokeWidth=2;html=1;shape=mxgraph.flowchart.annotation_2;align=left;labelPosition=right;pointerEvents=1;" vertex="1" parent="WIyWlLk6GJQsqaUBKTNV-1">
          <mxGeometry x="6403" y="2814.5" width="50" height="54" as="geometry" />
        </mxCell>
        <mxCell id="T2P5xVpa0okPMdfS9Mix-90" style="edgeStyle=none;curved=1;rounded=0;orthogonalLoop=1;jettySize=auto;html=1;entryX=1;entryY=0.5;entryDx=0;entryDy=0;fontSize=12;startSize=8;endSize=8;" edge="1" parent="WIyWlLk6GJQsqaUBKTNV-1" source="T2P5xVpa0okPMdfS9Mix-91" target="T2P5xVpa0okPMdfS9Mix-88">
          <mxGeometry relative="1" as="geometry" />
        </mxCell>
        <mxCell id="T2P5xVpa0okPMdfS9Mix-91" value="Stainless Steel Tank 450C" style="rounded=1;whiteSpace=wrap;html=1;absoluteArcSize=1;arcSize=14;strokeWidth=2;" vertex="1" parent="WIyWlLk6GJQsqaUBKTNV-1">
          <mxGeometry x="6225" y="2821.5" width="180" height="40" as="geometry" />
        </mxCell>
        <mxCell id="T2P5xVpa0okPMdfS9Mix-92" value="UO3" style="rounded=1;whiteSpace=wrap;html=1;absoluteArcSize=1;arcSize=14;strokeWidth=2;" vertex="1" parent="WIyWlLk6GJQsqaUBKTNV-1">
          <mxGeometry x="6453" y="2853.5" width="50" height="30" as="geometry" />
        </mxCell>
        <mxCell id="T2P5xVpa0okPMdfS9Mix-93" value="H2" style="rounded=1;whiteSpace=wrap;html=1;absoluteArcSize=1;arcSize=14;strokeWidth=2;" vertex="1" parent="WIyWlLk6GJQsqaUBKTNV-1">
          <mxGeometry x="6453" y="2799.75" width="32" height="30" as="geometry" />
        </mxCell>
        <mxCell id="T2P5xVpa0okPMdfS9Mix-94" value="H2O" style="rounded=1;whiteSpace=wrap;html=1;absoluteArcSize=1;arcSize=14;strokeWidth=2;" vertex="1" parent="WIyWlLk6GJQsqaUBKTNV-1">
          <mxGeometry x="6240" y="2763" width="57" height="30" as="geometry" />
        </mxCell>
        <mxCell id="T2P5xVpa0okPMdfS9Mix-95" style="edgeStyle=none;curved=1;rounded=0;orthogonalLoop=1;jettySize=auto;html=1;entryX=1;entryY=0.5;entryDx=0;entryDy=0;fontSize=12;startSize=8;endSize=8;exitX=0.631;exitY=0.008;exitDx=0;exitDy=0;exitPerimeter=0;" edge="1" parent="WIyWlLk6GJQsqaUBKTNV-1" target="T2P5xVpa0okPMdfS9Mix-94">
          <mxGeometry relative="1" as="geometry">
            <mxPoint x="6338.580000000002" y="2820.82" as="sourcePoint" />
            <mxPoint x="6292" y="2772.5" as="targetPoint" />
            <Array as="points">
              <mxPoint x="6350" y="2780" />
            </Array>
          </mxGeometry>
        </mxCell>
      </root>
    </mxGraphModel>
  </diagram>
</mxfile>
